<svg id="Germany" xmlns="http://www.w3.org/2000/svg" width="397.59" height="540.5" viewBox="0 0 397.59 540.5"><path d="M546.3,473.18,545,475.92l-.1.62.23-.08.46.91.21.2.54.26-.57.56-.12.78.23,2.12,0,1.1-.13.94-.27.86-.74,1.61-.21.31-.36.36-.34.15-.9.14-.15,0-.37.75-.38,1.74-.1-.1-1.77-.8-.66-1-.71-.53-.75-.4-4.49-1.26-1.45.19-1.42.54-.39.36-.23.45,0,.24.13.29.18,1.18.4.63.1.58-.13.63-.58,1.24-.2.6-.08.61.08,1.84-.09.68-.2.45-.19.34-.09.34-.24,1.38-.61,1-4.23,3.71-1.46.81-6,1-4.49,1.79-.7.49-1.61,1.56-1.4.78-.67.54.06.16-2.4.47-.65.35-.4.43-.79,1.25-.56.65L501.55,514l-.17.22-.62,1-.26.12h-.28l-.28.09-.27.47-.08.87.22.86.38.78.41.64,3,3.2.65,1.44.12.7v.09l.24.68.34.51,1,.62.88.91.34.19.73.72,1.47,3.41.94,1.4.2.21-2.79,4.49-.24.51-.09.41v.41l-.08.43-.27.46h0L506.3,541l.71.72,2.41.45.65-.11,1.1-.48.67.1.54.41.53.65.84,1.45.35.93.12.83,0,.78-.09.77-.11.14-.51,1.28,0,.17-.7.92-.11,0,0,1.46.1,0,0,.09-.42,1-.1.17v1.12l0,.39.1.36.14.32.11.39,0,.54-1.24,1.47-.3.26-.47,0-.26-.17-.25-.25-.41-.22h-.45l-.36.19-.37.13-.47-.19-2.12-1.61-2-2.18-.37-.3-.41-.14-.66-.12-1.07-.87-.23-1.58.53-1.49,1.18-.58-.86-.84-1.13-.74-.68-.84.45-1.12-.74.09-2.43-.62H496l-1.54.37-.82.41-1.52,1.36-.41.37-.68.3-.91.18-.89,0-.61-.3-1.29-1-.35-.42-.24-.53-.45-1.37-.2-.37-.71-.14-1.7.65-.74.12-2.5-.53-.94.14-1,.5-.47.07-.43-.38-.24-.71.15-.45.28-.38.15-.51.11-.69.13-.29-.1,0-.63.27-.38.24-1,.87-.69.28.09.53.14.35.31.43.36.35.22.15.12.35.07,1.72-.05.6-.15.41-1.24,1.59-.34.07-10-.43-3.64.74-.48.29-.44,1.09-.45.15-2.44-.5-3.52,0-1.89-.37-.8,0-.15.18-1.21,1.06-.29.68-.34,1.48-.22.59-.79.88-.94.38-2,.34-1-.32-1.07-.14-1,.23-2,2.36.53.14.47.31.16.48-.37.63-.7.31-1.88,0-.81.26-.83.78-.57.77-.62.67-.95.43-1-.12.1-1.74-.93-.38-1.09.3-2.83,2-.84.26-4.52-.07-.6-.35-.45-.87h.11l.13-.29.1-.44V560l-.13-.3-2.16-2.33-2.23-1-.3-.51,1.4-.95.36-.44-1-.75-.46-.27-.6,0-.62.18-1.74.8-1.28.16-.37-.12-.22-.3-.14-.33-.18-.2-5.71-2.17-1.05,0-.6.42-.87,1.23-.56.45-.51.09-1.84-.29-.68-.31-.35-.25-.23-.29-.07-.56.16-.4.21-.31.05-.25-.19-.6-.15-.12-.33.13-.73.13-.65.26.06.55.38.71.29.72-.06.59-.44,2.56.61.33.37.41.24.57.18.79v1.37l-.4,1.44-.63,1.3-.72,1-.37.25-.91.32-.45.3-.26.4-1,1.94-.78,1-.85.78-1.94,1.19-.94.37-2.79.34L388,570l-.2-.11.18-.4.4-.72.17-.12.58-.17.21-.21.1-.43,0-.38-.1-.42.79-2.36,0-1.16-.8-.43-1.9.35-.52.57-.18.14h-.22l-.45-.27-.22,0-.57.27-.33.25h-.29l-.42-.41-.23-.61,0-.69-.12-.66-.47-.56,1-.77.2-.67-.38-.75L382,556.13l-.49.23-.38.34-.38.16-.48-.28-.07-.38v-.39l-.39-.86-.54-.54-.46-.6-.12-1.06-.52.42-.65.13-1.29-.11-1.31-.48-.22.06-.53.34-.35,0-.88-.46-.16-.67.08-.79-.14-.75-.51-.56-.61-.22-.65.07-.63.34-.94,1.1-.54,1.17-.63,1-1.18.56-2.77.05-2.53-.7-.19,0-.1-.06-11.88-7.42-1.68-.39h-1.62l-.59-.92h-2.39l-4.83-.55-.82.33L337,545l-1.58.51-1.69.16-1.06-.28-1.26-.94,0,0-.62-.61v-.45l.8-.18-1.12-1.07-1.42-.82-1.16-.06-.39,1.27.35.39-2.28,0-.09-.42-.11-.49-.34-.43-.18-.53.14-.42.58-.87.11-.24-.28-.65-.43-.08-.48.1-.45-.11-.32-.51-.34-.74-.41-.64-.56-.18-.4.41-.22,1.4-.54.36-.42-.32-.16-.78,0-.84-.06-.47-.8-.36-1.08-.06-.69.4.4,1-.65.34-2.33.46h-.49l-.34.2-.58.87-.21.47-.32,1.28-.46.44-1.1.6-.43.49,0,.47.18.47.11.55-.28.7.68.25.21,0,1.11.85.9.51.77,0,.64-.33.6-.43.65-.33,2.1-.36.61.1.49.21.2.08.39,0-.24,1.52-.28-.14,0-.4,0-.1H320l-.23.08-.16.14-.09.35.07.3.1.25,0,.22-.05.44,0,.45,0,.48-.19.33-.09.17-.59.2-.38-.48-.09-.12-.52-.86-.67-.63-1.29.13-1.33.88-.5,1.1-.06.3-1.2.21-.13,0-2.77,0-1.65-.43-.42-.28-.3-.62-.24-.62-.23-.28-.5,0-1.12-.35h-.79l-2.33.4-.23.15-.21.31-.3.31-.79.24-.94.51-.35.28-.37.42-.18.32-.19.28-.42.29-2,.44h-5.63l-.12-.28-.08-.6-.14-.6-.26-.27-2.8-.17-.61-.32-.78,1.24-.69.83-.82.46-1.7.36-1.91.39-.95-.12-.63-.34-1.61-.85h1.14l.46-.45.57-1.61-1,.11-2.21.66.17-.65.11-.23-.1-.62-.23-.33-.27-.24-.26-.33-1-1.95-.59-.83-.64-.33-.17-.3-.13-.69-.12-1.38.15-.39.71-.77.26-.42,0-1.05-.54-2.26.12-.89.62-2.09.24-.31.59-.32.09-.73-.22-1.2v-.28l0-.17,0-.16.05-.27.13-.28.28-.28.18-.32.27-.65.08-.29-.05-1,.23-.86,1.15-1.23.42-.78-.1-2-1.87-3.31L276,517l.27-1.26.29-1,.31-.58.3-.39.22-.51.08-.94.29-.79,2.74-3.85.46-.94.27-1.1.09-1.33.3-1.36.7-.58.79-.43.6-1,0-.91-.22-.87-.28-.83-.14-.79.05-.85.32-1.73.22-.74.3-.62.28-.42.22-.63.09-1.25.22-.59.52-.54,1.09-.85v-.45l-.52-1.39v-2.28l.37-2.14,1.82-2.86.51-.36.71-.23.67-.58,1.18-1.42.52-.34.57-.56.47-.62.19-.52.05-1.25.23-.59.49-.16,1.22,0,.33-.12.25-.21.09-.36.1-.62.2-.35.2-.2.09-.16.38,0,1.59-.85.27-.23.53-.91,2-5.42,1.35-2.57.89-1,0,0-.5-.47-4.26-.89-6.87-3.67-.78-.09-2.46.26-3.61-1.05-.48.13-1,.56-.53.13-.42-.06-.91-.32-.48-.09-.55.12-.51.22-.51.13-.17,0-.43-.1-.41-.34-.42-.86-.32-.39-1-.51-1.89-.33-.95-.6-.56-.72-1-1.6-.61-.63.07-.22.11-.15.32-.21-.28-1-.79-.28-1.87-.13-.19-.74-.84-.07-.84.25-.17.06-.72.41-.21.32-.31,1-.22.36-.32.16-.89.11-.39.13-.27.33-.45.94-.26.26-.27,0-1.17-.55-3.73,0-.68-.23-.68-.36-1.66-1.21-.23,0-.4.39,0,.37.14.34-.07.34-1.33.84-1-.75-.5-1.82,0-2.34-.94,0-2.7-1.54-.48-.07-1.26.12-1.81-.41-.43.1-.25.93.32,1.07.17,1.1-.75,1-.55.13-1.69-.63h-1.93l-.51-.22-.55-.93.12-.81.22-.84-.27-1.05h-.18l-.58.38-.19,0-.12-.24-.08-.52-.05-.15-.14-.28-.34-1.23-.19-.19-.6-.22-.23-.18,0-.26.09-.68-.07-.28-2.88-2.78-.72-.89-.27-.77.23-.61.77,0,.19-.54-.15-.4-2.1-2.24-.3-.44.09,0v-.37l-.12-.55-.27-.56-.74-.72-4-2-.47-.08-.36.14-.82.56-.46.09-.37,0v-.49l-.13-2,.28-2.16.08-.64v-2.11l.25-.74.65-1,1.13-1.39.44-.91.33-.48.11-.3,0-.45-.26-.25-.28-.19-.08-.23.68-.94,3.18-2.07-.09-.14-.29-.35.14-.32.21-.1.37.15-.31-.42-.2-.48-.1-.55,0-.6.42-.37,0-.26-.12-.29V407l.2-1.46.07,0v-.57l.09-.09h0l-.24-.25h-.17l-1.33-.4h-2.08L225,404l-.74-.47-1.24-1.19-.73-.47H222l-.65.4-.35,0,0-.23-.26-.69-.17-.47-.21-.37-.63-.4-1.47-.66-.67-.69-1.43-3.44-.74-1.21-.46.93-.35-.59-.66-1.89-.74-1.14-.19-.55.12-.75-.27-1.41-.28-.55-.47-.27.4-.79.16-.22h-.1l-.26,0-.07,0,.27-1.89.21-.93.3-1,.39-.46.13-.46-.15-.41-.44-.36L213,381l.15-.76.08-.22.37-.23.86-.07.32-.21.26-.64,0-.76-.24-.77-.58-.65.45-.58,1-.7.43-.66.89-.42,1.87-.53.79-.72-.19-.61.09-.68.29-.65.43-.53.58-.34.49,0,.49.2.58.1,1.15-.21.54-.58-.05-.51,0-.43-1.5-2.63-.06-.8.3-.91.31-1.6,0-1.14-.17-.23-.3-.06-.38-.61-.23-.69-.13-.61L222,359l.48-.47-.78-.05-1.88-.43-.66-.32-.1-.09-.1,0-.11,0-.09.09-1.46.46-.43,0-.35-.28-.37-.78-.35-.32.35-.59-.51,0-.35-.15-.06-.31.34-.52-.72-.91.8-1.26,1.36-1.14,1-.57v-.25l.49-.6.31-.61-.1-.41-3-.07-.89-.47-.51-1,.58-.37-2.64-4-.83-.83-.72-.07-1.71.47-.58-.06-.17-.58.16-.72,0-.66-.72-.37-.06-.13v-.13l0-.12.07-.13.1-.89-.29-.42-.42-.3-.34-.57-.18-.88.66.17.62-.59.23-.81-.1-.63,0-.59.38-.69.6-.34,1,.09.48-.59.26-.7,0-.55-.37-1.41.08-.45.23-.38.08-.27-1.41-.5-1-.64-.33-.36-.11-.55-.07-1,.17-.57.26-.58-.09-.36-1.55.19-1.14-.38-.6-.08-.58.17-1.13.55-.59.12,0-1.73-.67-2-.24-1.61,1.21-.64.6.34.51.67.58.53.8-.09.53-.59.83-1.75.58-.67,4-3.15,2.47-1.34.64-.86-.91-.85,1-.82.35-.2-1-.34-2.16,1.49-1-.57-.31-1.28.12-1.54.38-1.38.44-.76.91-1.12,2.22-4.11.45-.44,1.11-.77.43-.61.23-.87.13-1.52.25-.61-.65-.78.06-1.28.33-1.48.16-1.37-.22-1.26-.3-2.28-1.75-2-2.88-4-.19-.86.23-1,.51-1.56-2.93-1.29-1-1.27.59-2-.43-.44-1-.74-.5-.24-1.26,0-.43-.17,0-.76.26-.25.7-.71.08-1.41-.58-1.35-1-.76.14-.63.73-.51,1.76-.31.84-.36.9-.67.62-.33,1.76-.48,1.41.38,1,.26.69.17-.58-.92-1.61-1.7-.54-.41,1.47-.8,1.4.66,1.39,1.13,1.46.61,1.36-.3.35,0,.31.3.48.86.2.25,1.66.25.7.41.13,1.09,1.63-.45.18-.7-.36-1.58,2.78.82h.88l.71-.32,2.14-1.65,4.31-1.48,3.83-.12,1.17-.64,1-1.2,1-1.8.35-.39.33-.06.22-.22,0-.85-.11-.48-.22-.34-1.12-1.19-2.83-1.59-1-.28-.68-.49-.09-1.07.3-.73.39-.19.45,0,.52-.26.35-.45.35-.89.23-.4.74-.77.69-.39.25,0,2.56-.29.54-.5,1-2,.84-.88,1.86-.82.86-.77,1-1.66.46-.55,1.93-1.17.12-.37-.11-.2-.25-.47-.39-1.51,0-1.29.31-1.07.87-2,.37-2.58-.61-1.83-2.64-4.3-.27.13-.27.48-.4.38-1.09.32-1.13.07-1.22-.2-2.24-.85-3.43-.49-1.14-.56-.86-1-.26-1.06-.06-1.25-.16-1.27-.53-1.12.72-.07,2.4-1.22-1.42-1.2-.3-.46v-.59l.19-.59.09-.64-.37-.75.75-.54.78-.57,1.45-.45,4.11-.07,2.3.7,2.13-.32.65.28,1.55.48.79-1.53.31-2.51.41-7.72.37-2.4.44-1.24.34-.94,3.55-5.61.94-2.41.4-2.29.07-2.58-.41-5.16-.16-.63-.21-.38-.16-.46,0-.86.11-.58.62-1.59.29-1.25.13-1.12,0-1.16-.12-2.06.42-.23.49-.53.39-.53.38-.78.15-.86-.32-.8,1.09-1.67.59-.3h1l.94.24,1.49,1,.82.33-1-1.54-1.71-.63-9.86-.36-1.6-.79-.64-2v-5.39l.19-1.22.84-2.21.19-1.08.36-.67h.84l1.75.39.23-.59.41-.22.32-.71-.08-.92-.38-.53-1.27-.64-.56-.58-.09-1,.61-.8,1.39-1,1.58-1.77.84-.58,1.61-1.68,3.42-1.34,6.66-.76.46.33.47.63,1,.25,6.39-1.34,13-1.82,3.46,1v.54l-.28,2.06,1.21,2.64,1.79,2.31,1.45,1V140l-.37.92.67.33,1,.27.49.77-.14,1.31-.4.67-.94.71-.78.4-1.71.16L297,146l.79,2.42.4.92.58.63.55-.27.5-.21.72,0,.51.28.83,1,.31.2.35.31.35.68.46.69.62.31.73,0,.52-.12.47-.29.53-.52.91-1.53,1-2.5.23-2.5L307.08,144l-1.7.46-.91-.15.08-1.07.37-1.2.31-2.48.37-1,.58-.61.73-.3,1.81-.09.82.39.65.89.52,1,.53.71,1.75.9,3.7.73,1.67.82v.54l-1,.89-1,1.16-.7,1.57-.26,2.12,0,4.08.25,1.8.59,1.33.12-1.8-.45-4.53,0-2.15.66-1.58,1-.71.9-.87.39-2.08-.21-.36-1.11-2.85-.33-.43-.45-1-.38-1.09-.31-1.39-.61-1.66-.14-1.22.09-1.23.27-1.08,1.62-4.07,1.15-4.42.74-2,.62-.93.84-.82,1-.58,1-.22.9.06.52.23,1.06,1.21,1.54,1.31,1.64.86,3.39.84,1.85,0,3.15-.79,1.73.14.81-1,3.45-.85,3.42,0,.74-.54.59.45.71.13,1.47-.08.38.26,1,1.26,4.22,7.48,1.74,2.06,1.21,1,.6.77.59,2.21,3,4.4.66.61.8.36,1,.13.54.26,2.58,1.78,2.91.65,2.39.53.56-.23-.54-1-1.62-1-3.89-.45-1.58-.63-3.13-2-1.42-1.62L361.1,134l-.12-2-.17-1.28-.44-.4-2-1.14-.65-.23-1.06-1-1-2.21-.68-2.36-.07-1.47-1.58-.63-2.73-2.37-1.64-1-1.61-.38-5.51-.12-1.64-.77-1.1-.31-.51.32-.45.76-1-.34-1.52-1.17-1.45-1.8-3.58-7.29,1.67-.78L333,106l1,.29,1.7,1.15.93.31.95-.45.33-.81.35-1.46.24-1.58v-1.15l-.5-.75-.81-.72-.59-.76.13-.84v-.46l-1.06-.32-1.51.28-1.41.68-.78.88h-.29l-1.19-2.07-.76-1.66-.13-.36.36-1.48.66-1.28.45-1.17-.31-1.12v-.51l.54-.41,1.83-.53.74-.07.46-.38.67-.92.68-1.18.43-1.11-1,.19-1.63,1.42-.93.41.08-.24.13-.53.09-.24-1.32.16-2.26.69-1.33.16-1.55-.26-.67.26-1.44,1.4-.5.17-1.16-.42-1.23-1.13-.9-1.63-.12-1.93.61-.77,1.19-.54,1.33-.27,1,0v-.51l-.78-.18-.6-.57-.57-.18-.69.93-.37-.81.13-.84.4-.78.43-.61.93.41,3.51-1h4.76l1.1-.3.91-.58,1.83-1.62,1.67-.83L338,75l.3-1.21V72l-1.1-1.71-3.54-3.84-.5-.79-.21-.79-.4-.35-.89,0-.92.26-.48.34-.3-.56,1.48-1-1.51-4.07-.56-1-1.24-.78-2.34-2.06-1.47-.73v-.52l.24-1.36L324,51.46,323.12,50l-.59-1.29-.24-2,.19-1.75.59-2.17,1.52.47,1.6.07,2.95-1.11,1-.16,3.46.6L337,44l9.18,2.18.73.65.19.75.13,1,.32.9.77.31h3.16l.65-.12.42-.44.62-.17.47-.43.78-.18.88.83.73.08.64-.21,0,0h.61l2.58-1.31.82-1,1.06-.42.54-1,.56-.46.14,2.7,2.1.78,2.66.15,1.8.8.76.58,1.12.48,1,.74.45,1.3.5.7,1.13-.2,2-.76-.17-1.56,1-.07,1.4.88,1,1.26.59,2.57.27.59.39.57.81.88-.55.43-.57-.07-.54-.25-.4-.11,0,.16-1.07.86h-.14l-.28.2-.18,0-.11.16,0,.69.63,0,1.13-.34,1.14-.07.65.88.46-.4.5,0,.24.46-.31,1,.21,1,0,1.48-.24,3.09L382.23,68l-.3,1-.41.86-.55.8-1.4,1.3-1.74,1-1.88.61-1.81.21v.51l1.87,1,10.45-2.51.81.29,2.62,2.3-.86.87V77l.34.91.23,1.2-.25,1-.62.92-.78.67-.75.23.12.16.14.13,0,.23-.29.49.47.51.13.62-.17.7-.43.71.95-.35.72-.89,1-2.31.58-2.47.31-.62.43-.3,1.64-.17.59-.35.29-.4.22-.42.4-.4.5-.16,1.84.16.95.48,2.62,2.11,6.83,3L411,86.13l1.78.44,2-.36,1.46-.91L418.65,83l1.43-.92,1.49-.64,3.61-.47v.51l-.78,0h-1.08l.75.34.75-.25,1,.71,3-1.88,1.36.52-1.61,1.81-.46.73-.26-.22-.66-.29.47,1.22.4,3,.34,1.41-.32.93,0,1.26.29,2.14-.19,1.26-.41.68-.42.46-.19.65-5,3.28-1.73,2.24-.76.49-1.75.61h-.34l-.37.33-.29-.21-.31-.34-.39,0-.34.23-.17.19-1.67,2.62-.44.49v.46l.57,1.44.63,1.06.83.69,1.18.38,1.68-.17.43.17.3.77.05.87.16.68.64.19h.17l.5,0,.22,0,.55-.43,1.27-1.34.72-.28.82-.18,2.3-1.24,5.27-.7.38.14.3.42.28,1,.31.52,1.54.42.23.37-.2,1.68.1.77.55.32,1.29.09.36-.09,1.75-1.51.33.22.44,1,.27.24h1.81l0,.23,1.66,2.1.33.22h.49l.06-.77.43-1.19L445,113l-.19-1.19.32-.54.42-.33.36-.09-.08-.33-.11-.83-.08-.35,1.48-1.5v-.55h-.29v-.46l1.1.46h.38l.87-.65.78-2,.58-.42.35-.12.28-.33.22-.46.19-.55,0-.37-.32-.26v-.38l.14-.38.18-.25.16-.2L452.86,99l1.38-1,1.69-.25,3.61.65,10.33-2.23,1.62-1,.22,2.12-.16,2.06.09,1.74,1,1.19-.42-.89L472,99.48l-.23-.72.45-.86,1.25-.71.37-1-.49,0-.46.08-.45.19-.4.28.33-.69,1.47-1.93.88-.8,1-1.74.61-.39.56-.17,3.27-1.79,1.64-1.39.64-.75,1.56-3,2.61-3.79.28-.71,1.78-3.12.69-2,.5-.64.88-.45v.46h-.29l.92,1.49,1.87.77h9.86l1.62.79,1-.57,1.24.31.55.83-1.07,1-1.11.24-4.63-.4-1.85-.7-1.15-.15-.33.15-.47.67-.24.19h-.88l-1.13-.21-.41.23-.27,1-.27-.55-.23.13-.38.34-.27.08.07.63.18.29.28.09.35,0-.15,0h-.12l-.06.1V81l-.83-.45-.93.09-.79.52-.38.86-.71-.9-.85-.43-1.57-.15-.71.34-.58.86-.28,1.14L486,84l-.62-.13-.26-.11-.31-.27-.29.51.28.89-.21.88-.54.64-.72.16.31,1,.36.79.1.65-.49.59,1.89,1.32,1,.27.93-.58-.68,0-.51-.26-.89-.78.29-.87.4-.65L487.22,87l.26-.18.47-.15.18-.14.14-.36,0-.94.09-.3.74-.63L492,83l-.59-.44-.27-.07V82l.81-.3.29,0,.35.28v-.51l.81.72,1.29-.34L497,80.49l-.09-.25-.12-.56-.08-.25.45-.34.51-.2.53-.08.55.07v.55l-.65.17-.44.59-.26.85-.1.93.54-1,.2-.5.15-.59.38.71.45.66.48.23L500,81l.51.46.47,0,.42-.34.38-.55.12.58.21.53.27.48.74,1,.16.13.16-.08.43-.1.84.06.43-.13.49-.44.37-.6.45-1.2.38-.74,1.11-1.1,1.72-1.11,1.72-.65,1.1.33-.55.53,0,.89.33,1,.51.72,1.87,1,.52.5-.82,1.46.18,1.14,1.23,2,.12.81v.81l.13.63.47.25h1.94v.55H518l-.28.13-.49.32,1.42-.14,2.26,1.29,1.51.37,1.11.61,1.42,2.94,1.18,1-.68.48-.51.53H526l1.61-.83.85.33-.34.87-.2.34-.35.31.52.31.31-.17.29-.25.39.11.24.37.62,1.7.55,1.09.64.88.8.53,1,0v-.51l-.36-.33-.49-.85-.36-.33v-.5l5.35-1.06,1.28-.59,2.22-1.52,1.23-.42.2.39-.08.32-.28.24-.43.11v.46l1.32.69,3.43,2.89v.5l-.62,1.09L545,104.8l-.53,1.3-1.17.73.52.4,1.26,1.61.45.75.25.2,1.23.52.3.21.19.5.13.54.13.34,0,.27-.06.33v.29l.17.12.62-.06.14.06.23.2.27.16.27.1.25,0,.53.3.07.7-.27.82-.48.69-3.1,2.57-.46.94.39.9.81.4.81.19.36.27.28.8.63.93.7.62.47-.09,3.18,2.67,1.44.33.7.88.17.16,1-.08.32.08,1.09.66.52.22,3.48.25,1.22-.36.52-1,.32-.22.7.13.62.61.13,1.19-.35.54-2,1.46.54.31.64.22.7.1.33,0h0l0,2-.17,1.14.65,1.43.91,2.84.08.72-.12,2.67,0,1.61.32,1.5,1,1.64.45,1.52.91,1.53.45,3.76.91,4.23.29,1.37.07.61,0,1.32.14.71.26.46.67.56.17.4.56.53-1.13,2.23-.32.48-.45.24-.43.65-.31.88-.12,1,.15,1.18.26,1,.09,1-1.29,4.09-.13.6-.58,1.3-1.33,1.4-2.55,2-2.63,1.38-2.1,1.57v.44l.26.73.53,2.54.1.9-.18,1.36-.45.87-1.15,1,.5,1,.75.59.91.29,1,.07.87.38,1.41,1.68,1.18.63,4.61,3.41.67.79,1.48,2.93.45.44.82.38,1.25,1.71,2.59,1,2.51,2.84.25.28,1.35,1.11L581,215.18l-.34,1.65.81.74.2.76L581,220l-1.05,1.66-2.24,2,.24,2.82,1,3.09.91,2.06-.26,1.29,1,1.1,1.47.75,1.23.29,1.21.53.68,1.25,0,1.44-.84,1.12v.44l.62,1-.16,1-.47,1.29-.26,1.83.43,1,2.82,2.12-.8,1-.33.6-.14.63-.08.65-.18.66-.94,1.71-.23.68-.15,4.29-.37,1.37-.67,1.27-.79,1.07-2.49,2.54-.57,1.21.13,1.49.71,1.09.79.54.6.81.17,1.84.44,1.78,1,1.15,2.1,1.76.56,1.2.43,1.77.07,1.84-.51,1.4-.84,1.33-.35,1.36.09.5.14.73,1,1,2.83,1,.91.66h0l1,.57,2,.6,1,.48.68.53.8.84.45,1-.37.87.16,1.83.26,2.94v.06l.19,1.25.12.47.8,1.42,1,1.15.63,1.36-.22,2,.16.21.17.2-.74,1.46-.58,1.84-.36,1.94-.05,1.74-.09.89-.28.46-.34.32-.23.48-.08.68v1.32l-.13.79-1.93,4.92-2.18,5.21L590,330.47l-.62,1v1.28l-.69,1.84-.41.79-.42.49-.7.19-.94,0-1.6-.36L583,334.41l-.62-.34-1.5-.43-.21-.51.15-1.23.73-1.73.26-.91-.24-.78H581l-2.4,1-.49-.39.23-.84.52-1,.34-.83.08-1-.13-.67-.34-.55-.52-.63-.53-.42-1.17-.3-.54-.37-.4-.57-.15-.41-.1-.42-.25-.58-.37.95-.49.26-1.58-.09-1.21.54H571l-.47-.26-.28-.37-.23-.39-.32-.29-1.62-.53-1.37.22-1,1.06-.61,2-.48.7.5.33,1.46.19.87.36-.07.13-.37.26,0,.72,1.11,1.1,1.6.47,1.15.67-.26,1.71-1.27,1.08-3.4-.27-1.55.33-.47.47-.8,1.19-.52.5-6.75,3.11-.84.05-1.58-.2-.85.18-.46.34-.66.85-.45.33-.54.08-.42-.13-.37,0-.4.49-.18.66.05.58.1.48,0,.37-.29.42-.25.09h-.27l-1.25.78-.78.16-2-.22-.93.09-1.65.61-.83.17-3.89,0-2,.37-1.77,1.07.5,1-.17.92-.58.75-.72.55.25.55,0,.41-.26.32-.43.24-.75.94-.73.67-.81.21-1-.48-.28-.36-.61-1-.23-.26-.53-.19-.12.08,0,.25-.26.28-1.62,1.16-.24.43-.47,1.38-.9.47-.72-.32-.71-.5-.84-.08-1.44,3.87-.62,1.13-1.07.8-2.28-.14-1.22.43h0l-.39.11-.41,0-.4,0-.38-.11-.34-.26-.35-.08-.37.09-.35.25-.29,2.78-.28,1.24-.61.72-1,.94-.34.34-1.49-.08-4-2.45-.36-.11-.39.08-.61.41-.27.1-.77-.11-.69,0-.71.26-.56.55-.95,1.49-.49.47-.56.06-2.31-.42-3.25.24-1.74.52-1.2,1-.32.28-.15.34-.09.34-.12.31v.14l.06.23,0,.26-.09.25-.18.1-.38,0-.16.09-.52.47-1.27.71-.46.46-1.35,2.45-.49.52-.48.34-.35.53-.12,1.07-.86,1.1-.23.64-.13,1.2.13.84.25.72v.6l-.61.44-.73-.09-.44-.69-.52-1.86-.05-.35-.07-.39-.18-.44-.19-.26-.76-.76-.11-.16,0-.15,0-.14.11-.13.06,0,.05,0,.06,0H478l.19-.38,0-.31-.15-.25-.31-.17-1.24,0-.63-.19-.49-.43-.17-.53,0-1.16-.26-.63-.83-.59-2.08-.16-1.09-.08,1,1.05.35.6.16,1-.08.86-.29.32-.45.29-.54.82.45.81,2.14,1.34,1.06,1.16.48.76.34.8.12,1-.3,1.54,0,1,.38,1,.61.56.7.4.62.55.39.66.09.69v.62l.14.43,6.55,3.51h0l.66.66,1.6.17.73.69.11,1-.3.9-.05.73,1.77,1.05.62.24.27.48-.14,1.31-.34,1-1,1.85-.32,1-.87-.26-.26.94,0,1.41-.14,1.1-.69.7-1.79.77-.51,1,.21.71.45.86.89,1.29.63.56.66.46,1.44.69.6.31.36.71,0,.89-.37.82.11.09.35.17-.21.52,0,.17.44.54,1,.56.45.51.31.72.2,1.48.17.79.28.8.28.59.34.5.47.5.48.15.46-.07.32.26.06,1.13.13,2.18.21,1.08.49,1,.85.7,2,.94.87.91,1.42,3.18.68.72.86.31,2.55.37.81-.11-.19-.85.59-.19,1.66.45.73.4.63.51,1.22,1.29.75.31.24.55.06.64.2.62,1.38,1.64h0l.54.31,4.05,5.52.57,1.31.69,1.11,1.23.72,2.61.12.87.33.53.46,1.32,1.77,1.84,1.88.48,1.15,0,1.85.62,1,1.24,1.17,1.37,1,1,.48.45-1.14.41-.73.6-.28.28.06.72.15.76.47.73.59.74.41.79-.09.1,1.25.47,1.2.67,1,.74.73.82.39,1.61.26.61.34,1,1.57,2.09,4.18Zm17.08-359.13-.73,2-.36.25-.41.12.75.93.35,1.15-4.91.57-1-.15-.72-.51-1,1.14-1.27.74-2.48.67-2.74,0-1.52-.45-.79-1.1.56-.2.9-.69,1.39-.31,1.5-.87.4-.44.32-2.12L550,111.74l.12-1.89,2.18.14.77.32-.3.54.11.41-.35,1.44,0,1.17.68-1.21.55-.3h1.75l-.23.18-.17.19L555,113l-.06.41,1.47.46-.35-1,.55-1.81-.07-2-.6-1.23-1,.42-.36-1.2-.47-1-.59-.78-.69-.55-.85-.21-.87.19-.44.57.39.92v.55l-.37.21-.39.45-.32.57-.13.55-.26.16-1.51.57.09-1,.32-.61.35-.43.12-.48-.23-.9-.32-.1-.38.27-1.38.62-.64.86-.61.6-.87-.34.35-1.43L546,104l.25-1.93-.38-1.14L544.12,99l-.53-.83.4-.84.66-.7.81-.32.81.34.38.72.88,2.42.52,1L549.2,102l2.85,1.67,1.64.63,1.31.83,7.62,8.39.74.55Zm-321,24.47-1,.14-1.5.66-.8.2V140l.48.19.37.26.32.44.3.69-.38-.22-.56-.67-.37-.15-.44.08-.64.34-.27.08-.78-.39-.59-.85-.17-.86.51-.39,3.3-1,1.61-.13Zm3.27-5,1.61-.8,5.9-.76,1.66.52ZM256.91,131l2-1.17,2.34-.4,4.9.11,0,.35-.07.08H266l-2,.81-5.29.71ZM267,129.49l.72-.5.88-.14.83.19.56.45-.14.29-.14.11-.34.1-1.73-.54Zm32.64.5.54-.94.85-.38,1,.16.92.66h-.62l-.43.18-.69.67-.21.15-.38-.1-.24-.17-.26,0-.45.3Zm-26.1-3,3.86,0,.87.53,0,.32-.06.07h-.11L278,128l-3.15-.1-1.47.36-.11,1.28-1.27.06-.39-.34-.15-1,.22-.84.54-.34Zm6.21,0,1.1-1.38,1.82-.41,3.66.25v.5h-.62l-1,.61-1.21.52-1.24.07-1.06-.7-.4.57-.38.29h-.37Zm9.22-1-.84-.6.19-.47.77-.29.91-.1.71.07.65.2,1.15.71-.41-.08-.47.06-1.82-.43-.78,0Zm151.65-15.1.63-1.67,1.57-1.36,1.8-.59,1.29.61-1.28,3.83-.46.69-.54,0,0-.51.3-1.29-.19-.85h-.36l-.24.62.2,1-.64.53-.69,0-.7-.43Zm6.62-6.87v-.18l.23-.54,2.94-1.43.61-.59-.73,1-2,1.85-.58,1.19h-.24ZM336.16,70.69l-.2.09-.09.22,0,.34,0,.41-.8.77-.54.92-.63.84-1,.53L331,75l-.89-.32-.48-.84.48-.26.07-.42-.19-.45-.36-.35L331,71l1.53-.7,1.71-.1ZM435.44,74,438,78.88,432.53,78l-.79.46.19.3.19.13-1.74.12-1.13-.19-.49-.62.08-1.51-.2-.58-.62-.24-1.13,0-.47.15-.32.44h-.32l-.15-.55-.15-.31h-.23l-.51.32-.12-1,1.21-3,1.7-1.66,2.09-.36,3.69,1.6,1.11,1,.34.46Zm81.75-8.91-1.06.87-.25,1.23,0,1.44-.42,1.55-.32.42-.61.53-.26.58-.16.73-.08.75-.06,1.58h-.29v-1l.12-1.72,1.36-4.9.29-1.89.32-.52.7-.19.6,0,.49.08.27.44v.83l0-.08-.13-.16-.17,0v1h-.27Zm24,15.36,1.15,2.12.74,1,1.06.42-.58.41-.56.71-.43,1-.17,1.21v1.18l-.13.47-.46,0-.94-.33h.51l.4-.23.18-.5-.18-.79h-.3l-.44.48-.67.26h-.69l-.53-.25V87l1.6-.69.67-.54.36-.84-2.25.15-1,.32-.85.59,2.39-1.69.81-.34v-.51l-1.16-.11-.61.06-.42.3-.59.69-.36-.17-.34-.49-.49-.28-4.31.51-.78.49-2.29,2-.48.77-.5,1.14-1.07.22-1,.5-.17,2,.6-.51v-.38l-.1-.1h-.11l-.08-.07,2.07-.37.3.14.32,1.69-.09.78-.69.33-1.23-.19L526,92l-1.54-1,.35-.39.23-.88.45-1.13-.64.38-.28.29-.27.39.17.2.13.26-.87-.08-.45.09-.32.26-.39.21-.43-.29-.4-.43-.27-.22-.64-.12-.76-.37-.47-.64.24-.95-.63-.19-1.33.65-.43,0-.3-.57.27-.5.58-.22.66.28v-.47L516,84.51l.6-1.6.85-1.32,1.1-.5,1.32.88.3-.51.5.49.6-.11,1.29-.89-.68-.07-.52-.5-.21-.73.2-.77v-.47l-.59-.06-.32-.36-.28-.4-.44-.19-1.92.51.75-1.56.32-.4,1.17-.29,1.31-.69.89-.16V74.3l0,0,.27-.15.27-.34-1.21-.47-.52-.35-.34-.66.15-.18L521,72l.08-.24,0-.53-1.28.51-.77.09-.34-.34-.1-.24-.2-.06-.2-.17-.1-.58-.05-.64-.16-.39-.28-.17h-.39l1-.48,3.32-.49.72.16.23.45.5.2.51.38.23,1,.19.54.33-.28.16-.85L524,68.7l.62-.87.79-.83.82-.63.73-.27-.49,1.52-.32.66-.38.42h.28l.23,0,.21.18.19.34-.21.36-.4,1.08.62,0,.5-.18.39-.47.26-.83-.37-.11-.41-.33-.38-.11v-.51l.59-.56.49,1,.76,1,.51,1-.28,1.13.86,1.25,1.08.39,2.23-.06-.32-.56.41-1,.22-.31.28-.23v-.55l-.34-1-.23-.53-.34-.42v-.51l.25-.19.14-.16.18-.13.34-.08v-.46l-.54,0-.35.32-.27.4-.32.27-.47.08-1.49-.08-.23-.24-.23-.53-.3-.53-.41-.24-.65-.14-.27-.37-.15-.48-.29-.53-.5-.75-.09-.3-.59.49-.33.36-.7,1-1,.61-.73.81-.79.59-.86-.28-.15-.88.3-1.38.57-1.26.61-.56.13-.32.18-.71.1-.69-.13-.32-1.93.5-.64.45-.28-.09,0-.86L521,61l.46-.5.52-.38,5.94-1.73,1.21,0,1.14.63v.46l-.66.53-.9.52-.78.7-.35,1.06.13,1.32.37,1.07.58.82.73.62,1.8.61,5.62-1.08,1.92.43L540,67.51l.29,1.92-1.13,1.81-1.92,1.29-1,.93-.4,1.09.16,1.25.38,1.31.48,1.1.46.67.88.46,2,.5ZM308.85,58,311,62.06l.83.46-.6.51-1.47.54-1-.93-.82-1.49L307.08,60l1.25-2.37.78-.86.95-.35v.36l-.06.08h-.13l-.12.08-.48.5Zm7.15-4.7,2.41.15,1,.6.78,1.35v.51l-.36.6-.5,1.44-.36.51-.59.2-.73-.09-.66-.26-.38-.31-1.12.43L314.06,58l-2.52-1.57.85-1.57,1-1,1.18-.48Zm-5.94-14.42-.25,2.67,1.46,1.39,2.09.53L322.8,43l-1.09.86-5.41-.3-.68.37-1.19.94-.66.19h-3l-.29-.15-.37-.66-.37-.18-.41,0-.28.11-1.32.92-.22.21-.11.55-.07,1.48-.12.31.14,4.1-.11,1.34-.22,1-.27.22-.28-1.06,0-2,.5-8.16.41-1.6,3.28-9.24L312.46,30l2.06,1.11-2.64.14-.34.37,1.2.13.35.92-.38,1-1.76,1-.82,1.23-.45,1.52Zm11.87,30.42,2.79-1.19.09.81-.35,1.83-1,1.59-1.24.71-1,0-.55-.49-.44-1.07.27-1.21.78-.6.32-.16ZM290.3,96.19l-.21.17-.07-.31-.18,0-.13-.34-.2-.22-.26-.25.64,0,.26.3Zm.36-.87.76-.23.15.4-.68.22Z" transform="translate(-201.21 -29.75)" fill="none" stroke="#000" stroke-linecap="round" stroke-linejoin="round" stroke-width="0.5"/></svg>