<svg xmlns="http://www.w3.org/2000/svg" width="1020.11" height="403.22" viewBox="0 0 1020.11 403.22"><g id="Layer_2" data-name="Layer 2"><g id="TEXT"><text transform="translate(444.85 392.85)" font-size="8" font-family="IBMPlexMono-SemiBold, IBM Plex Mono" font-weight="600" letter-spacing="0.1em">LEGAL STRUCTURE: 501(C)</text><rect x="429.61" y="1" width="158.47" height="59.52" fill="none" stroke="#000" stroke-miterlimit="10" stroke-width="2"/><rect x="124" y="261.12" width="117.11" height="29.64" fill="none" stroke="#000" stroke-miterlimit="10" stroke-width="2"/><rect x="1" y="261.12" width="117.11" height="29.64" fill="none" stroke="#000" stroke-miterlimit="10" stroke-width="2"/><rect x="124" y="296.12" width="117.11" height="29.64" fill="none" stroke="#000" stroke-miterlimit="10" stroke-width="2"/><rect x="1" y="296.12" width="117.11" height="29.64" fill="none" stroke="#000" stroke-miterlimit="10" stroke-width="2"/><rect x="124" y="332.12" width="117.11" height="29.64" fill="none" stroke="#000" stroke-miterlimit="10" stroke-width="2"/><rect x="1" y="332.12" width="117.11" height="29.64" fill="none" stroke="#000" stroke-miterlimit="10" stroke-width="2"/><rect x="384" y="261.12" width="117.11" height="29.64" fill="none" stroke="#000" stroke-miterlimit="10" stroke-width="2"/><rect x="261" y="261.12" width="117.11" height="29.64" fill="none" stroke="#000" stroke-miterlimit="10" stroke-width="2"/><rect x="384" y="296.12" width="117.11" height="29.64" fill="none" stroke="#000" stroke-miterlimit="10" stroke-width="2"/><rect x="261" y="296.12" width="117.11" height="29.64" fill="none" stroke="#000" stroke-miterlimit="10" stroke-width="2"/><rect x="384" y="332.12" width="117.11" height="29.64" fill="none" stroke="#000" stroke-miterlimit="10" stroke-width="2"/><rect x="261" y="332.12" width="117.11" height="29.64" fill="none" stroke="#000" stroke-miterlimit="10" stroke-width="2"/><line x1="363.08" y1="110.85" x2="450.75" y2="110.85" stroke="#000" stroke-miterlimit="10"/><line x1="508.84" y1="96.03" x2="508.84" y2="60.52" stroke="#000" stroke-miterlimit="10"/><text transform="translate(458.85 33.78)" font-size="8" font-family="IBMPlexMono-SemiBold, IBM Plex Mono" font-weight="600" letter-spacing="0.1em">BOARD OF DIRECTORS</text><rect x="204.61" y="81.09" width="158.47" height="59.52" fill="none" stroke="#000" stroke-miterlimit="10" stroke-width="2"/><text transform="translate(245.05 113.87)" font-size="8" font-family="IBMPlexMono-SemiBold, IBM Plex Mono" font-weight="600" letter-spacing="0.1em">ADVISORY BOARD</text><rect x="166.61" y="166.76" width="158.47" height="59.52" fill="none" stroke="#000" stroke-miterlimit="10" stroke-width="2"/><text transform="translate(215.45 199.54)" font-size="8" font-family="IBMPlexMono-SemiBold, IBM Plex Mono" font-weight="600" letter-spacing="0.1em">COMMITTEE A</text><rect x="342.61" y="166.76" width="158.47" height="59.52" fill="none" stroke="#000" stroke-miterlimit="10" stroke-width="2"/><text transform="translate(391.45 199.54)" font-size="8" font-family="IBMPlexMono-SemiBold, IBM Plex Mono" font-weight="600" letter-spacing="0.1em">COMMITTEE B</text><rect x="517.61" y="166.76" width="158.47" height="59.52" fill="none" stroke="#000" stroke-miterlimit="10" stroke-width="2"/><text transform="translate(566.45 199.54)" font-size="8" font-family="IBMPlexMono-SemiBold, IBM Plex Mono" font-weight="600" letter-spacing="0.1em">COMMITTEE C</text><rect x="692.61" y="166.76" width="158.47" height="59.52" fill="none" stroke="#000" stroke-miterlimit="10" stroke-width="2"/><text transform="translate(741.45 199.54)" font-size="8" font-family="IBMPlexMono-SemiBold, IBM Plex Mono" font-weight="600" letter-spacing="0.1em">COMMITTEE D</text><rect x="450.75" y="96.03" width="117.11" height="29.64" fill="none" stroke="#000" stroke-miterlimit="10" stroke-width="2"/><text transform="translate(459.3 113.81)" font-size="8" font-family="IBMPlexMono-SemiBold, IBM Plex Mono" font-weight="600" letter-spacing="0.1em">EXECUTIVE DIRECTOR</text><text transform="translate(168.95 278.9)" font-size="8" font-family="IBMPlexMono-SemiBold, IBM Plex Mono" font-weight="600" letter-spacing="0.1em">STAFF</text><text transform="translate(34.75 278.9)" font-size="8" font-family="IBMPlexMono-SemiBold, IBM Plex Mono" font-weight="600" letter-spacing="0.1em">VOLUNTEER</text><text transform="translate(168.95 313.9)" font-size="8" font-family="IBMPlexMono-SemiBold, IBM Plex Mono" font-weight="600" letter-spacing="0.1em">STAFF</text><text transform="translate(34.75 313.9)" font-size="8" font-family="IBMPlexMono-SemiBold, IBM Plex Mono" font-weight="600" letter-spacing="0.1em">VOLUNTEER</text><text transform="translate(168.95 349.9)" font-size="8" font-family="IBMPlexMono-SemiBold, IBM Plex Mono" font-weight="600" letter-spacing="0.1em">STAFF</text><text transform="translate(34.75 349.9)" font-size="8" font-family="IBMPlexMono-SemiBold, IBM Plex Mono" font-weight="600" letter-spacing="0.1em">VOLUNTEER</text><text transform="translate(428.95 278.9)" font-size="8" font-family="IBMPlexMono-SemiBold, IBM Plex Mono" font-weight="600" letter-spacing="0.1em">STAFF</text><text transform="translate(294.75 278.9)" font-size="8" font-family="IBMPlexMono-SemiBold, IBM Plex Mono" font-weight="600" letter-spacing="0.1em">VOLUNTEER</text><text transform="translate(428.95 313.9)" font-size="8" font-family="IBMPlexMono-SemiBold, IBM Plex Mono" font-weight="600" letter-spacing="0.1em">STAFF</text><text transform="translate(294.75 313.9)" font-size="8" font-family="IBMPlexMono-SemiBold, IBM Plex Mono" font-weight="600" letter-spacing="0.1em">VOLUNTEER</text><text transform="translate(428.95 349.9)" font-size="8" font-family="IBMPlexMono-SemiBold, IBM Plex Mono" font-weight="600" letter-spacing="0.1em">STAFF</text><text transform="translate(294.75 349.9)" font-size="8" font-family="IBMPlexMono-SemiBold, IBM Plex Mono" font-weight="600" letter-spacing="0.1em">VOLUNTEER</text><rect x="518" y="261.12" width="117.11" height="29.64" fill="none" stroke="#000" stroke-miterlimit="10" stroke-width="2"/><rect x="518" y="296.12" width="117.11" height="29.64" fill="none" stroke="#000" stroke-miterlimit="10" stroke-width="2"/><rect x="518" y="332.12" width="117.11" height="29.64" fill="none" stroke="#000" stroke-miterlimit="10" stroke-width="2"/><text transform="translate(562.95 278.9)" font-size="8" font-family="IBMPlexMono-SemiBold, IBM Plex Mono" font-weight="600" letter-spacing="0.1em">STAFF</text><text transform="translate(562.95 313.9)" font-size="8" font-family="IBMPlexMono-SemiBold, IBM Plex Mono" font-weight="600" letter-spacing="0.1em">STAFF</text><text transform="translate(562.95 349.9)" font-size="8" font-family="IBMPlexMono-SemiBold, IBM Plex Mono" font-weight="600" letter-spacing="0.1em">STAFF</text><rect x="641" y="261.12" width="117.11" height="29.64" fill="none" stroke="#000" stroke-miterlimit="10" stroke-width="2"/><rect x="641" y="296.12" width="117.11" height="29.64" fill="none" stroke="#000" stroke-miterlimit="10" stroke-width="2"/><rect x="641" y="332.12" width="117.11" height="29.64" fill="none" stroke="#000" stroke-miterlimit="10" stroke-width="2"/><text transform="translate(674.75 278.9)" font-size="8" font-family="IBMPlexMono-SemiBold, IBM Plex Mono" font-weight="600" letter-spacing="0.1em">VOLUNTEER</text><text transform="translate(674.75 313.9)" font-size="8" font-family="IBMPlexMono-SemiBold, IBM Plex Mono" font-weight="600" letter-spacing="0.1em">VOLUNTEER</text><text transform="translate(674.75 349.9)" font-size="8" font-family="IBMPlexMono-SemiBold, IBM Plex Mono" font-weight="600" letter-spacing="0.1em">VOLUNTEER</text><rect x="779" y="261.12" width="117.11" height="29.64" fill="none" stroke="#000" stroke-miterlimit="10" stroke-width="2"/><rect x="779" y="296.12" width="117.11" height="29.64" fill="none" stroke="#000" stroke-miterlimit="10" stroke-width="2"/><rect x="779" y="332.12" width="117.11" height="29.64" fill="none" stroke="#000" stroke-miterlimit="10" stroke-width="2"/><text transform="translate(823.95 278.9)" font-size="8" font-family="IBMPlexMono-SemiBold, IBM Plex Mono" font-weight="600" letter-spacing="0.1em">STAFF</text><text transform="translate(823.95 313.9)" font-size="8" font-family="IBMPlexMono-SemiBold, IBM Plex Mono" font-weight="600" letter-spacing="0.1em">STAFF</text><text transform="translate(823.95 349.9)" font-size="8" font-family="IBMPlexMono-SemiBold, IBM Plex Mono" font-weight="600" letter-spacing="0.1em">STAFF</text><rect x="902" y="261.12" width="117.11" height="29.64" fill="none" stroke="#000" stroke-miterlimit="10" stroke-width="2"/><rect x="902" y="296.12" width="117.11" height="29.64" fill="none" stroke="#000" stroke-miterlimit="10" stroke-width="2"/><rect x="902" y="332.12" width="117.11" height="29.64" fill="none" stroke="#000" stroke-miterlimit="10" stroke-width="2"/><text transform="translate(935.75 278.9)" font-size="8" font-family="IBMPlexMono-SemiBold, IBM Plex Mono" font-weight="600" letter-spacing="0.1em">VOLUNTEER</text><text transform="translate(935.75 313.9)" font-size="8" font-family="IBMPlexMono-SemiBold, IBM Plex Mono" font-weight="600" letter-spacing="0.1em">VOLUNTEER</text><text transform="translate(935.75 349.9)" font-size="8" font-family="IBMPlexMono-SemiBold, IBM Plex Mono" font-weight="600" letter-spacing="0.1em">VOLUNTEER</text><polyline points="509.3 125.67 509.3 145.75 596.85 145.75 596.85 166.76" fill="none" stroke="#000" stroke-miterlimit="10"/><polyline points="592.08 226.29 592.08 244.41 576.55 244.41 576.55 261.12" fill="none" stroke="#000" stroke-miterlimit="10"/><polyline points="592.08 244.41 699.55 244.41 699.55 261.12" fill="none" stroke="#000" stroke-miterlimit="10"/><polyline points="771.85 226.29 771.85 244.41 837.55 244.41 837.55 261.12" fill="none" stroke="#000" stroke-miterlimit="10"/><polyline points="837.55 244.41 960.55 244.41 960.55 261.12" fill="none" stroke="#000" stroke-miterlimit="10"/><polyline points="596.85 145.75 771.85 145.75 771.85 166.76" fill="none" stroke="#000" stroke-miterlimit="10"/><polyline points="509.3 125.67 509.3 145.75 421.76 145.75 421.76 166.76" fill="none" stroke="#000" stroke-miterlimit="10"/><polyline points="426.53 226.29 426.53 244.41 442.05 244.41 442.05 261.12" fill="none" stroke="#000" stroke-miterlimit="10"/><polyline points="426.53 244.41 319.05 244.41 319.05 261.12" fill="none" stroke="#000" stroke-miterlimit="10"/><polyline points="246.76 226.29 246.76 244.41 181.05 244.41 181.05 261.12" fill="none" stroke="#000" stroke-miterlimit="10"/><polyline points="181.05 244.41 58.05 244.41 58.05 261.12" fill="none" stroke="#000" stroke-miterlimit="10"/><polyline points="421.76 145.75 246.76 145.75 246.76 166.76" fill="none" stroke="#000" stroke-miterlimit="10"/></g></g></svg>