<svg xmlns="http://www.w3.org/2000/svg" width="681.01" height="721.16" viewBox="0 0 681.01 721.16"><g id="Layer_2" data-name="Layer 2"><g id="CONNECTIONS"><polygon points="401.33 235.15 279.68 235.15 218.85 340.5 279.68 445.87 401.33 445.87 462.16 340.5 401.33 235.15" fill="none" stroke="#000" stroke-miterlimit="10"/><polygon points="395.53 135.15 285.48 135.15 190.17 190.17 135.15 285.48 135.15 395.53 190.17 490.84 285.48 545.87 395.53 545.87 490.84 490.84 545.87 395.53 545.87 285.48 490.84 190.17 395.53 135.15" fill="none" stroke="#000" stroke-miterlimit="10"/><polyline points="279.68 235.15 190.17 190.17 149.73 91.88" fill="none" stroke="#000" stroke-miterlimit="10"/><polyline points="218.85 340.5 135.15 395.53 29.8 381.41" fill="none" stroke="#000" stroke-miterlimit="10"/><path d="M91.88,531.29s98.29-37.84,98.29-40.45l89.51-45,5.8,100L220.58,630" fill="none" stroke="#000" stroke-miterlimit="10"/><line x1="401.33" y1="235.15" x2="395.53" y2="135.15" fill="none" stroke="#000" stroke-miterlimit="10"/><polygon points="381.41 29.8 299.6 29.8 220.58 50.97 149.73 91.88 91.88 149.73 50.97 220.58 29.8 299.6 29.8 381.41 50.97 460.43 91.88 531.28 149.73 589.13 220.58 630.04 299.6 651.21 381.41 651.21 460.43 630.04 531.28 589.13 589.13 531.28 630.04 460.43 651.21 381.41 651.21 299.6 630.04 220.58 589.13 149.73 531.28 91.88 460.43 50.97 381.41 29.8" fill="none" stroke="#000" stroke-miterlimit="10"/><polyline points="218.85 340.5 135.15 285.48 50.97 220.58 190.17 190.17 91.88 149.73" fill="none" stroke="#000" stroke-miterlimit="10"/><path d="M29.8,299.6c2.37,1.19,105.35-14.12,105.35-14.12L29.8,381.41" fill="none" stroke="#000" stroke-miterlimit="10"/><polyline points="149.73 589.13 190.17 490.84 220.58 630.04" fill="none" stroke="#000" stroke-miterlimit="10"/><line x1="460.43" y1="630.04" x2="395.53" y2="545.87" fill="none" stroke="#000" stroke-miterlimit="10"/><line x1="651.21" y1="381.41" x2="545.87" y2="395.53" fill="none" stroke="#000" stroke-miterlimit="10"/><line x1="531.29" y1="91.88" x2="490.84" y2="190.17" fill="none" stroke="#000" stroke-miterlimit="10"/><line x1="220.58" y1="50.97" x2="285.48" y2="135.15" fill="none" stroke="#000" stroke-miterlimit="10"/><polygon points="401.33 235.15 279.68 235.15 218.85 340.5 279.68 445.87 401.33 445.87 462.16 340.5 401.33 235.15" fill="none" stroke="#000" stroke-miterlimit="10"/><polyline points="190.17 190.17 218.85 339.12 401.33 235.15 279.68 445.87 462.16 340.5 218.85 340.5 279.68 235.15 279.68 445.87" fill="none" stroke="#000" stroke-miterlimit="10"/><polyline points="279.68 235.15 395.53 135.15 299.6 29.8 285.48 135.15 279.68 235.15 401.33 445.87 401.33 235.15 545.87 285.48 630.04 220.58" fill="none" stroke="#000" stroke-miterlimit="10"/><line x1="279.68" y1="235.15" x2="462.16" y2="340.51" fill="none" stroke="#000" stroke-miterlimit="10"/><polyline points="218.85 340.5 401.33 445.87 285.48 545.87 299.6 651.21" fill="none" stroke="#000" stroke-miterlimit="10"/><polyline points="462.16 342.34 490.84 490.84 589.13 531.28" fill="none" stroke="#000" stroke-miterlimit="10"/><polyline points="279.68 445.87 135.15 395.53 50.97 460.43" fill="none" stroke="#000" stroke-miterlimit="10"/><line x1="135.15" y1="395.53" x2="91.88" y2="531.29" fill="none" stroke="#000" stroke-miterlimit="10"/><polyline points="395.53 545.87 531.28 589.13 490.84 490.84 401.33 445.87 395.53 545.87 381.41 651.21 285.48 545.87" fill="none" stroke="#000" stroke-miterlimit="10"/><polyline points="545.87 395.53 651.21 299.6 545.87 285.48 462.16 340.5 545.87 395.53 630.04 460.43 490.84 490.84" fill="none" stroke="#000" stroke-miterlimit="10"/><path d="M545.87,285.48l43.26-135.75c-1.62,1.39-98.29,40.44-98.29,40.44l-89.51,45" fill="none" stroke="#000" stroke-miterlimit="10"/><polyline points="490.84 190.17 460.43 50.97 395.53 135.15 381.41 29.8" fill="none" stroke="#000" stroke-miterlimit="10"/><line x1="285.48" y1="135.15" x2="149.73" y2="91.88" fill="none" stroke="#000" stroke-miterlimit="10"/></g><g id="BORDER"><circle cx="278.76" cy="235.15" r="28.8" stroke="#000" stroke-miterlimit="10" stroke-width="2"/><circle cx="218.85" cy="340.51" r="28.8" stroke="#000" stroke-miterlimit="10" stroke-width="2"/><circle cx="458.97" cy="340.51" r="28.8" stroke="#000" stroke-miterlimit="10" stroke-width="2"/><circle cx="399.82" cy="235.15" r="28.8" stroke="#000" stroke-miterlimit="10" stroke-width="2"/><circle cx="278.76" cy="445.87" r="28.8" stroke="#000" stroke-miterlimit="10" stroke-width="2"/><circle cx="399.82" cy="445.87" r="28.8" stroke="#000" stroke-miterlimit="10" stroke-width="2"/></g><g id="TEXT"><text transform="translate(282.11 710.79)" font-size="8" font-family="IBMPlexMono-SemiBold, IBM Plex Mono" font-weight="600" letter-spacing="0.1em">LEGAL STRUCTURE: NONE</text><text transform="translate(267.96 232.11)" font-size="8" fill="#fff" font-family="IBMPlexMono-SemiBold, IBM Plex Mono" font-weight="600" letter-spacing="0.1em">CORE<tspan x="-5.6" y="12">MEMBER</tspan></text><text transform="translate(208.05 337.47)" font-size="8" fill="#fff" font-family="IBMPlexMono-SemiBold, IBM Plex Mono" font-weight="600" letter-spacing="0.1em">CORE<tspan x="-5.6" y="12">MEMBER</tspan></text><text transform="translate(448.17 337.47)" font-size="8" fill="#fff" font-family="IBMPlexMono-SemiBold, IBM Plex Mono" font-weight="600" letter-spacing="0.1em">CORE <tspan x="-5.6" y="12">MEMBER</tspan></text><text transform="translate(389.02 232.11)" font-size="8" fill="#fff" font-family="IBMPlexMono-SemiBold, IBM Plex Mono" font-weight="600" letter-spacing="0.1em">CORE<tspan x="-5.6" y="12">MEMBER</tspan></text><circle cx="282.5" cy="135.15" r="28.8" fill="#fff" stroke="#000" stroke-miterlimit="10" stroke-width="2"/><text transform="translate(266.1 138.11)" font-size="8" font-family="IBMPlexMono-SemiBold, IBM Plex Mono" font-weight="600" letter-spacing="0.1em">MEMBER</text><circle cx="190.05" cy="189.58" r="28.8" fill="#fff" stroke="#000" stroke-miterlimit="10" stroke-width="2"/><text transform="translate(173.65 192.54)" font-size="8" font-family="IBMPlexMono-SemiBold, IBM Plex Mono" font-weight="600" letter-spacing="0.1em">MEMBER</text><circle cx="92.21" cy="149.06" r="28.8" fill="#fff" stroke="#000" stroke-miterlimit="10" stroke-width="2"/><text transform="translate(66.42 152.02)" font-size="8" font-family="IBMPlexMono-SemiBold, IBM Plex Mono" font-weight="600" letter-spacing="0.05em">FREELANCER</text><circle cx="50.21" cy="219.68" r="28.8" fill="#fff" stroke="#000" stroke-miterlimit="10" stroke-width="2"/><text transform="translate(24.42 222.64)" font-size="8" font-family="IBMPlexMono-SemiBold, IBM Plex Mono" font-weight="600" letter-spacing="0.05em">FREELANCER</text><circle cx="29.8" cy="299.62" r="28.8" fill="#fff" stroke="#000" stroke-miterlimit="10" stroke-width="2"/><text transform="translate(4 302.58)" font-size="8" font-family="IBMPlexMono-SemiBold, IBM Plex Mono" font-weight="600" letter-spacing="0.05em">FREELANCER</text><circle cx="29.8" cy="382.63" r="28.8" fill="#fff" stroke="#000" stroke-miterlimit="10" stroke-width="2"/><text transform="translate(4 385.6)" font-size="8" font-family="IBMPlexMono-SemiBold, IBM Plex Mono" font-weight="600" letter-spacing="0.05em">FREELANCER</text><circle cx="51.13" cy="460.8" r="28.8" fill="#fff" stroke="#000" stroke-miterlimit="10" stroke-width="2"/><text transform="translate(25.33 463.76)" font-size="8" font-family="IBMPlexMono-SemiBold, IBM Plex Mono" font-weight="600" letter-spacing="0.05em">FREELANCER</text><circle cx="92.42" cy="532.23" r="28.8" fill="#fff" stroke="#000" stroke-miterlimit="10" stroke-width="2"/><text transform="translate(66.62 535.19)" font-size="8" font-family="IBMPlexMono-SemiBold, IBM Plex Mono" font-weight="600" letter-spacing="0.05em">FREELANCER</text><circle cx="150.01" cy="589.82" r="28.8" fill="#fff" stroke="#000" stroke-miterlimit="10" stroke-width="2"/><text transform="translate(124.21 592.78)" font-size="8" font-family="IBMPlexMono-SemiBold, IBM Plex Mono" font-weight="600" letter-spacing="0.05em">FREELANCER</text><circle cx="220.18" cy="630.34" r="28.8" fill="#fff" stroke="#000" stroke-miterlimit="10" stroke-width="2"/><text transform="translate(194.38 633.3)" font-size="8" font-family="IBMPlexMono-SemiBold, IBM Plex Mono" font-weight="600" letter-spacing="0.05em">FREELANCER</text><circle cx="299.35" cy="651.21" r="28.8" fill="#fff" stroke="#000" stroke-miterlimit="10" stroke-width="2"/><text transform="translate(273.19 654.17)" font-size="8" font-family="IBMPlexMono-SemiBold, IBM Plex Mono" font-weight="600" letter-spacing="0.06em">FREELANCER</text><circle cx="379.64" cy="651.21" r="28.8" fill="#fff" stroke="#000" stroke-miterlimit="10" stroke-width="2"/><text transform="translate(353.84 654.17)" font-size="8" font-family="IBMPlexMono-SemiBold, IBM Plex Mono" font-weight="600" letter-spacing="0.05em">FREELANCER</text><circle cx="461.08" cy="629.45" r="28.8" fill="#fff" stroke="#000" stroke-miterlimit="10" stroke-width="2"/><text transform="translate(435.29 632.41)" font-size="8" font-family="IBMPlexMono-SemiBold, IBM Plex Mono" font-weight="600" letter-spacing="0.05em">FREELANCER</text><circle cx="531.58" cy="589.45" r="28.8" fill="#fff" stroke="#000" stroke-miterlimit="10" stroke-width="2"/><text transform="translate(505.79 592.41)" font-size="8" font-family="IBMPlexMono-SemiBold, IBM Plex Mono" font-weight="600" letter-spacing="0.05em">FREELANCER</text><circle cx="589.18" cy="531.86" r="28.8" fill="#fff" stroke="#000" stroke-miterlimit="10" stroke-width="2"/><text transform="translate(563.38 534.82)" font-size="8" font-family="IBMPlexMono-SemiBold, IBM Plex Mono" font-weight="600" letter-spacing="0.05em">FREELANCER</text><circle cx="629.68" cy="460.86" r="28.8" fill="#fff" stroke="#000" stroke-miterlimit="10" stroke-width="2"/><text transform="translate(603.88 463.82)" font-size="8" font-family="IBMPlexMono-SemiBold, IBM Plex Mono" font-weight="600" letter-spacing="0.05em">FREELANCER</text><circle cx="651.21" cy="382.9" r="28.8" fill="#fff" stroke="#000" stroke-miterlimit="10" stroke-width="2"/><text transform="translate(625.42 385.86)" font-size="8" font-family="IBMPlexMono-SemiBold, IBM Plex Mono" font-weight="600" letter-spacing="0.05em">FREELANCER</text><circle cx="651.21" cy="299.62" r="28.8" fill="#fff" stroke="#000" stroke-miterlimit="10" stroke-width="2"/><text transform="translate(623.61 302.58)" font-size="8" font-family="IBMPlexMono-SemiBold, IBM Plex Mono" font-weight="600" letter-spacing="0.1em">FREELANCER</text><circle cx="629.66" cy="220.08" r="28.8" fill="#fff" stroke="#000" stroke-miterlimit="10" stroke-width="2"/><text transform="translate(603.86 223.04)" font-size="8" font-family="IBMPlexMono-SemiBold, IBM Plex Mono" font-weight="600" letter-spacing="0.05em">FREELANCER</text><circle cx="589.18" cy="149.3" r="28.8" fill="#fff" stroke="#000" stroke-miterlimit="10" stroke-width="2"/><text transform="translate(563.38 152.26)" font-size="8" font-family="IBMPlexMono-SemiBold, IBM Plex Mono" font-weight="600" letter-spacing="0.05em">FREELANCER</text><circle cx="531.59" cy="91.71" r="28.8" fill="#fff" stroke="#000" stroke-miterlimit="10" stroke-width="2"/><text transform="translate(505.79 94.67)" font-size="8" font-family="IBMPlexMono-SemiBold, IBM Plex Mono" font-weight="600" letter-spacing="0.05em">FREELANCER</text><circle cx="459.93" cy="50.71" r="28.8" fill="#fff" stroke="#000" stroke-miterlimit="10" stroke-width="2"/><text transform="translate(434.13 53.67)" font-size="8" font-family="IBMPlexMono-SemiBold, IBM Plex Mono" font-weight="600" letter-spacing="0.05em">FREELANCER</text><circle cx="381.66" cy="29.8" r="28.8" fill="#fff" stroke="#000" stroke-miterlimit="10" stroke-width="2"/><text transform="translate(355.86 32.76)" font-size="8" font-family="IBMPlexMono-SemiBold, IBM Plex Mono" font-weight="600" letter-spacing="0.05em">FREELANCER</text><circle cx="298.58" cy="29.8" r="28.8" fill="#fff" stroke="#000" stroke-miterlimit="10" stroke-width="2"/><text transform="translate(272.78 32.76)" font-size="8" font-family="IBMPlexMono-SemiBold, IBM Plex Mono" font-weight="600" letter-spacing="0.05em">FREELANCER</text><circle cx="220.48" cy="51.16" r="28.8" fill="#fff" stroke="#000" stroke-miterlimit="10" stroke-width="2"/><text transform="translate(194.68 54.12)" font-size="8" font-family="IBMPlexMono-SemiBold, IBM Plex Mono" font-weight="600" letter-spacing="0.05em">FREELANCER</text><circle cx="149.81" cy="92.16" r="28.8" fill="#fff" stroke="#000" stroke-miterlimit="10" stroke-width="2"/><text transform="translate(124.01 95.12)" font-size="8" font-family="IBMPlexMono-SemiBold, IBM Plex Mono" font-weight="600" letter-spacing="0.05em">FREELANCER</text><text transform="translate(268.56 444.03)" font-size="8" fill="#fff" font-family="IBMPlexMono-SemiBold, IBM Plex Mono" font-weight="600" letter-spacing="0.05em">CORE<tspan x="-5.2" y="9.6">MEMBER</tspan></text><text transform="translate(389.02 442.83)" font-size="8" fill="#fff" font-family="IBMPlexMono-SemiBold, IBM Plex Mono" font-weight="600" letter-spacing="0.1em">CORE<tspan x="-5.6" y="12">MEMBER</tspan></text><circle cx="190.05" cy="491.43" r="28.8" fill="#fff" stroke="#000" stroke-miterlimit="10" stroke-width="2"/><text transform="translate(173.65 494.39)" font-size="8" font-family="IBMPlexMono-SemiBold, IBM Plex Mono" font-weight="600" letter-spacing="0.1em">MEMBER</text><circle cx="488.73" cy="189.58" r="28.8" fill="#fff" stroke="#000" stroke-miterlimit="10" stroke-width="2"/><text transform="translate(472.33 192.54)" font-size="8" font-family="IBMPlexMono-SemiBold, IBM Plex Mono" font-weight="600" letter-spacing="0.1em">MEMBER</text><circle cx="488.73" cy="491.43" r="28.8" fill="#fff" stroke="#000" stroke-miterlimit="10" stroke-width="2"/><text transform="translate(472.33 494.39)" font-size="8" font-family="IBMPlexMono-SemiBold, IBM Plex Mono" font-weight="600" letter-spacing="0.1em">MEMBER</text><circle cx="289.7" cy="545.56" r="28.8" fill="#fff" stroke="#000" stroke-miterlimit="10" stroke-width="2"/><text transform="translate(273.3 548.52)" font-size="8" font-family="IBMPlexMono-SemiBold, IBM Plex Mono" font-weight="600" letter-spacing="0.1em">MEMBER</text><circle cx="385.16" cy="135.15" r="28.8" fill="#fff" stroke="#000" stroke-miterlimit="10" stroke-width="2"/><text transform="translate(368.76 138.11)" font-size="8" font-family="IBMPlexMono-SemiBold, IBM Plex Mono" font-weight="600" letter-spacing="0.1em">MEMBER</text><circle cx="392.36" cy="545.56" r="28.8" fill="#fff" stroke="#000" stroke-miterlimit="10" stroke-width="2"/><text transform="translate(375.96 548.52)" font-size="8" font-family="IBMPlexMono-SemiBold, IBM Plex Mono" font-weight="600" letter-spacing="0.1em">MEMBER</text><circle cx="135.22" cy="398.36" r="28.8" fill="#fff" stroke="#000" stroke-miterlimit="10" stroke-width="2"/><text transform="translate(118.82 401.32)" font-size="8" font-family="IBMPlexMono-SemiBold, IBM Plex Mono" font-weight="600" letter-spacing="0.1em">MEMBER</text><circle cx="545.87" cy="398.36" r="28.8" fill="#fff" stroke="#000" stroke-miterlimit="10" stroke-width="2"/><text transform="translate(529.47 401.32)" font-size="8" font-family="IBMPlexMono-SemiBold, IBM Plex Mono" font-weight="600" letter-spacing="0.1em">MEMBER</text><circle cx="135.15" cy="286.28" r="28.8" fill="#fff" stroke="#000" stroke-miterlimit="10" stroke-width="2"/><text transform="translate(118.75 289.24)" font-size="8" font-family="IBMPlexMono-SemiBold, IBM Plex Mono" font-weight="600" letter-spacing="0.1em">MEMBER</text><circle cx="545.87" cy="286.28" r="28.8" fill="#fff" stroke="#000" stroke-miterlimit="10" stroke-width="2"/><text transform="translate(529.47 289.24)" font-size="8" font-family="IBMPlexMono-SemiBold, IBM Plex Mono" font-weight="600" letter-spacing="0.1em">MEMBER</text></g></g></svg>