<svg xmlns="http://www.w3.org/2000/svg" width="753.36" height="431.3" viewBox="0 0 753.36 431.3"><g id="Layer_2" data-name="Layer 2"><g id="CONNECTIONS"><polyline points="59.8 204.31 59.8 176.38 250.3 176.38 250.3 152.95" fill="none" stroke="#000" stroke-miterlimit="10"/><line x1="186.55" y1="204.31" x2="186.55" y2="176.38" fill="none" stroke="#000" stroke-miterlimit="10"/><polyline points="312.55 204.31 312.55 176.72 376.3 176.72 376.3 152.95" fill="none" stroke="#000" stroke-miterlimit="10"/><polyline points="439.8 204.31 439.8 176.72 376.3 176.72" fill="none" stroke="#000" stroke-miterlimit="10"/><polyline points="693.33 204.4 693.33 176.47 502.83 176.47 502.83 153.04" fill="none" stroke="#000" stroke-miterlimit="10"/><line x1="566.58" y1="204.39" x2="566.58" y2="176.47" fill="none" stroke="#000" stroke-miterlimit="10"/><polyline points="250.3 123.31 250.3 99.38 375.85 99.38 375.85 79.83" fill="none" stroke="#000" stroke-miterlimit="10"/><polyline points="502.83 123.31 502.83 99.38 375.85 99.38 375.85 123.31" fill="none" stroke="#000" stroke-miterlimit="10"/><line x1="59.8" y1="233.95" x2="59.8" y2="285.31" fill="none" stroke="#000" stroke-miterlimit="10"/><line x1="186.8" y1="233.95" x2="186.8" y2="285.31" fill="none" stroke="#000" stroke-miterlimit="10"/><line x1="312.55" y1="233.95" x2="312.55" y2="285.31" fill="none" stroke="#000" stroke-miterlimit="10"/><line x1="439.8" y1="233.95" x2="439.8" y2="285.31" fill="none" stroke="#000" stroke-miterlimit="10"/><line x1="566.8" y1="233.95" x2="566.8" y2="285.31" fill="none" stroke="#000" stroke-miterlimit="10"/><line x1="693.33" y1="233.95" x2="693.33" y2="285.31" fill="none" stroke="#000" stroke-miterlimit="10"/><line x1="155.08" y1="138.13" x2="191.75" y2="138.13" fill="none" stroke="#000" stroke-miterlimit="10"/><line x1="375.84" y1="50.19" x2="375.84" y2="30.64" fill="none" stroke="#000" stroke-miterlimit="10"/><line x1="597.53" y1="138.13" x2="560.86" y2="138.13" fill="none" stroke="#000" stroke-miterlimit="10"/></g><g id="TEXT"><rect x="317.29" y="50.19" width="117.11" height="29.64" fill="none" stroke="#000" stroke-miterlimit="10" stroke-width="2"/><rect x="317.75" y="123.31" width="117.11" height="29.64" fill="none" stroke="#000" stroke-miterlimit="10" stroke-width="2"/><rect x="38" y="123.31" width="117.11" height="29.64" fill="none" stroke="#000" stroke-miterlimit="10" stroke-width="2"/><rect x="254.25" y="204.31" width="117.11" height="29.64" fill="none" stroke="#000" stroke-miterlimit="10" stroke-width="2"/><rect x="381.25" y="204.31" width="117.11" height="29.64" fill="none" stroke="#000" stroke-miterlimit="10" stroke-width="2"/><rect x="191.75" y="123.31" width="117.11" height="29.64" fill="none" stroke="#000" stroke-miterlimit="10" stroke-width="2"/><rect x="1.25" y="204.31" width="117.11" height="29.64" fill="none" stroke="#000" stroke-miterlimit="10" stroke-width="2"/><rect x="128.25" y="204.31" width="117.11" height="29.64" fill="none" stroke="#000" stroke-miterlimit="10" stroke-width="2"/><rect x="444.75" y="123.31" width="117.11" height="29.64" fill="none" stroke="#000" stroke-miterlimit="10" stroke-width="2"/><rect x="508.25" y="204.31" width="117.11" height="29.64" fill="none" stroke="#000" stroke-miterlimit="10" stroke-width="2"/><rect x="635.25" y="204.31" width="117.11" height="29.64" fill="none" stroke="#000" stroke-miterlimit="10" stroke-width="2"/><rect x="1" y="285.31" width="117.11" height="29.64" fill="none" stroke="#000" stroke-miterlimit="10" stroke-width="2"/><rect x="128" y="285.31" width="117.11" height="29.64" fill="none" stroke="#000" stroke-miterlimit="10" stroke-width="2"/><rect x="254" y="285.31" width="117.11" height="29.64" fill="none" stroke="#000" stroke-miterlimit="10" stroke-width="2"/><rect x="508" y="285.31" width="117.11" height="29.64" fill="none" stroke="#000" stroke-miterlimit="10" stroke-width="2"/><rect x="635" y="285.31" width="117.11" height="29.64" fill="none" stroke="#000" stroke-miterlimit="10" stroke-width="2"/><rect x="1" y="323.31" width="117.11" height="29.64" fill="none" stroke="#000" stroke-miterlimit="10" stroke-width="2"/><rect x="128" y="323.31" width="117.11" height="29.64" fill="none" stroke="#000" stroke-miterlimit="10" stroke-width="2"/><rect x="254" y="323.31" width="117.11" height="29.64" fill="none" stroke="#000" stroke-miterlimit="10" stroke-width="2"/><rect x="508" y="323.31" width="117.11" height="29.64" fill="none" stroke="#000" stroke-miterlimit="10" stroke-width="2"/><rect x="635" y="323.31" width="117.11" height="29.64" fill="none" stroke="#000" stroke-miterlimit="10" stroke-width="2"/><rect x="1" y="361.31" width="117.11" height="29.64" fill="none" stroke="#000" stroke-miterlimit="10" stroke-width="2"/><rect x="128" y="361.31" width="117.11" height="29.64" fill="none" stroke="#000" stroke-miterlimit="10" stroke-width="2"/><rect x="254" y="361.31" width="117.11" height="29.64" fill="none" stroke="#000" stroke-miterlimit="10" stroke-width="2"/><rect x="508" y="361.31" width="117.11" height="29.64" fill="none" stroke="#000" stroke-miterlimit="10" stroke-width="2"/><rect x="381" y="285.31" width="117.11" height="29.64" fill="none" stroke="#000" stroke-miterlimit="10" stroke-width="2"/><rect x="381" y="323.31" width="117.11" height="29.64" fill="none" stroke="#000" stroke-miterlimit="10" stroke-width="2"/><rect x="381" y="361.31" width="117.11" height="29.64" fill="none" stroke="#000" stroke-miterlimit="10" stroke-width="2"/><rect x="635" y="361.31" width="117.11" height="29.64" fill="none" stroke="#000" stroke-miterlimit="10" stroke-width="2"/><text transform="translate(356.64 67.97)" font-size="8" font-family="IBMPlexMono-SemiBold, IBM Plex Mono" font-weight="600" letter-spacing="0.1em">PARTNER</text><rect x="317.29" y="1" width="117.11" height="29.64" fill="none" stroke="#000" stroke-miterlimit="10" stroke-width="2"/><text transform="translate(331.45 18.78)" font-size="8" font-family="IBMPlexMono-SemiBold, IBM Plex Mono" font-weight="600" letter-spacing="0.1em">FOUNDING PARTNER</text><text transform="translate(331.9 141.09)" font-size="8" font-family="IBMPlexMono-SemiBold, IBM Plex Mono" font-weight="600" letter-spacing="0.1em">SENIOR ASSOCIATE</text><text transform="translate(74.55 141.09)" font-size="8" font-family="IBMPlexMono-SemiBold, IBM Plex Mono" font-weight="600" letter-spacing="0.1em">DIRECTOR</text><text transform="translate(634.03 141.09)" font-size="8" font-family="IBMPlexMono-SemiBold, IBM Plex Mono" font-weight="600" letter-spacing="0.1em">DIRECTOR</text><text transform="translate(268.4 222.09)" font-size="8" font-family="IBMPlexMono-SemiBold, IBM Plex Mono" font-weight="600" letter-spacing="0.1em">JUNIOR ASSOCIATE</text><text transform="translate(395.4 222.09)" font-size="8" font-family="IBMPlexMono-SemiBold, IBM Plex Mono" font-weight="600" letter-spacing="0.1em">JUNIOR ASSOCIATE</text><text transform="translate(205.9 141.09)" font-size="8" font-family="IBMPlexMono-SemiBold, IBM Plex Mono" font-weight="600" letter-spacing="0.1em">SENIOR ASSOCIATE</text><text transform="translate(15.4 222.09)" font-size="8" font-family="IBMPlexMono-SemiBold, IBM Plex Mono" font-weight="600" letter-spacing="0.1em">JUNIOR ASSOCIATE</text><text transform="translate(142.4 222.09)" font-size="8" font-family="IBMPlexMono-SemiBold, IBM Plex Mono" font-weight="600" letter-spacing="0.1em">JUNIOR ASSOCIATE</text><text transform="translate(458.9 141.09)" font-size="8" font-family="IBMPlexMono-SemiBold, IBM Plex Mono" font-weight="600" letter-spacing="0.1em">SENIOR ASSOCIATE</text><text transform="translate(522.4 222.09)" font-size="8" font-family="IBMPlexMono-SemiBold, IBM Plex Mono" font-weight="600" letter-spacing="0.1em">JUNIOR ASSOCIATE</text><text transform="translate(649.4 222.09)" font-size="8" font-family="IBMPlexMono-SemiBold, IBM Plex Mono" font-weight="600" letter-spacing="0.1em">JUNIOR ASSOCIATE</text><text transform="translate(45.95 303.09)" font-size="8" font-family="IBMPlexMono-SemiBold, IBM Plex Mono" font-weight="600" letter-spacing="0.1em">STAFF</text><text transform="translate(172.95 303.09)" font-size="8" font-family="IBMPlexMono-SemiBold, IBM Plex Mono" font-weight="600" letter-spacing="0.1em">STAFF</text><text transform="translate(298.95 303.09)" font-size="8" font-family="IBMPlexMono-SemiBold, IBM Plex Mono" font-weight="600" letter-spacing="0.1em">STAFF</text><text transform="translate(552.95 303.09)" font-size="8" font-family="IBMPlexMono-SemiBold, IBM Plex Mono" font-weight="600" letter-spacing="0.1em">STAFF</text><text transform="translate(679.95 303.09)" font-size="8" font-family="IBMPlexMono-SemiBold, IBM Plex Mono" font-weight="600" letter-spacing="0.1em">STAFF</text><text transform="translate(45.95 341.09)" font-size="8" font-family="IBMPlexMono-SemiBold, IBM Plex Mono" font-weight="600" letter-spacing="0.1em">STAFF</text><text transform="translate(172.95 341.09)" font-size="8" font-family="IBMPlexMono-SemiBold, IBM Plex Mono" font-weight="600" letter-spacing="0.1em">STAFF</text><text transform="translate(298.95 341.09)" font-size="8" font-family="IBMPlexMono-SemiBold, IBM Plex Mono" font-weight="600" letter-spacing="0.1em">STAFF</text><text transform="translate(552.95 341.09)" font-size="8" font-family="IBMPlexMono-SemiBold, IBM Plex Mono" font-weight="600" letter-spacing="0.1em">STAFF</text><text transform="translate(679.95 341.09)" font-size="8" font-family="IBMPlexMono-SemiBold, IBM Plex Mono" font-weight="600" letter-spacing="0.1em">STAFF</text><text transform="translate(45.95 379.09)" font-size="8" font-family="IBMPlexMono-SemiBold, IBM Plex Mono" font-weight="600" letter-spacing="0.1em">STAFF</text><text transform="translate(172.95 379.09)" font-size="8" font-family="IBMPlexMono-SemiBold, IBM Plex Mono" font-weight="600" letter-spacing="0.1em">STAFF</text><text transform="translate(298.95 379.09)" font-size="8" font-family="IBMPlexMono-SemiBold, IBM Plex Mono" font-weight="600" letter-spacing="0.1em">STAFF</text><text transform="translate(303.28 420.93)" font-size="8" font-family="IBMPlexMono-SemiBold, IBM Plex Mono" font-weight="600" letter-spacing="0.1em">LEGAL STRUCTURE: CORPORATION</text><text transform="translate(552.95 379.09)" font-size="8" font-family="IBMPlexMono-SemiBold, IBM Plex Mono" font-weight="600" letter-spacing="0.1em">STAFF</text><text transform="translate(425.95 303.09)" font-size="8" font-family="IBMPlexMono-SemiBold, IBM Plex Mono" font-weight="600" letter-spacing="0.1em">STAFF</text><text transform="translate(425.95 341.09)" font-size="8" font-family="IBMPlexMono-SemiBold, IBM Plex Mono" font-weight="600" letter-spacing="0.1em">STAFF</text><text transform="translate(425.95 379.09)" font-size="8" font-family="IBMPlexMono-SemiBold, IBM Plex Mono" font-weight="600" letter-spacing="0.1em">STAFF</text><text transform="translate(679.95 379.09)" font-size="8" font-family="IBMPlexMono-SemiBold, IBM Plex Mono" font-weight="600" letter-spacing="0.1em">STAFF</text><rect x="597.5" y="123.31" width="117.11" height="29.64" transform="translate(1312.11 276.26) rotate(-180)" fill="none" stroke="#000" stroke-miterlimit="10" stroke-width="2"/></g></g></svg>