
<svg class="practice-structures" xmlns="http://www.w3.org/2000/svg" xmlns:xlink="http://www.w3.org/1999/xlink" width="464.37" height="462.07" viewBox="0 0 464.37 462.07"><defs><pattern id="Diagonal_Lines" data-name="Diagonal Lines" width="72" height="72" patternTransform="translate(-27 -31)" patternUnits="userSpaceOnUse" viewBox="0 0 72 72"><rect width="72" height="72" fill="none"/><line x1="66" y1="84" x2="84" y2="66" fill="none" stroke="#231f20" stroke-linejoin="round" stroke-width="0.35"/><line x1="66" y1="90" x2="90" y2="66" fill="none" stroke="#231f20" stroke-linejoin="round" stroke-width="0.35"/><line x1="66" y1="96" x2="96" y2="66" fill="none" stroke="#231f20" stroke-linejoin="round" stroke-width="0.35"/><line x1="66" y1="102" x2="102" y2="66" fill="none" stroke="#231f20" stroke-linejoin="round" stroke-width="0.35"/><line x1="66" y1="108" x2="108" y2="66" fill="none" stroke="#231f20" stroke-linejoin="round" stroke-width="0.35"/><line x1="66" y1="114" x2="114" y2="66" fill="none" stroke="#231f20" stroke-linejoin="round" stroke-width="0.35"/><line x1="66" y1="120" x2="120" y2="66" fill="none" stroke="#231f20" stroke-linejoin="round" stroke-width="0.35"/><line x1="66" y1="126" x2="126" y2="66" fill="none" stroke="#231f20" stroke-linejoin="round" stroke-width="0.35"/><line x1="66" y1="132" x2="132" y2="66" fill="none" stroke="#231f20" stroke-linejoin="round" stroke-width="0.35"/><line x1="66" y1="138" x2="138" y2="66" fill="none" stroke="#231f20" stroke-linejoin="round" stroke-width="0.35"/><line x1="66" y1="144" x2="144" y2="66" fill="none" stroke="#231f20" stroke-linejoin="round" stroke-width="0.35"/><line x1="66" y1="150" x2="150" y2="66" fill="none" stroke="#231f20" stroke-linejoin="round" stroke-width="0.35"/><line x1="72" y1="150" x2="150" y2="72" fill="none" stroke="#231f20" stroke-linejoin="round" stroke-width="0.35"/><line x1="-6" y1="84" x2="12" y2="66" fill="none" stroke="#231f20" stroke-linejoin="round" stroke-width="0.35"/><line x1="-6" y1="90" x2="18" y2="66" fill="none" stroke="#231f20" stroke-linejoin="round" stroke-width="0.35"/><line x1="-6" y1="96" x2="24" y2="66" fill="none" stroke="#231f20" stroke-linejoin="round" stroke-width="0.35"/><line x1="-6" y1="102" x2="30" y2="66" fill="none" stroke="#231f20" stroke-linejoin="round" stroke-width="0.35"/><line x1="-6" y1="108" x2="36" y2="66" fill="none" stroke="#231f20" stroke-linejoin="round" stroke-width="0.35"/><line x1="-6" y1="114" x2="42" y2="66" fill="none" stroke="#231f20" stroke-linejoin="round" stroke-width="0.35"/><line x1="-6" y1="120" x2="48" y2="66" fill="none" stroke="#231f20" stroke-linejoin="round" stroke-width="0.35"/><line x1="-6" y1="126" x2="54" y2="66" fill="none" stroke="#231f20" stroke-linejoin="round" stroke-width="0.35"/><line x1="-6" y1="132" x2="60" y2="66" fill="none" stroke="#231f20" stroke-linejoin="round" stroke-width="0.35"/><line x1="-6" y1="138" x2="66" y2="66" fill="none" stroke="#231f20" stroke-linejoin="round" stroke-width="0.35"/><line x1="-6" y1="144" x2="72" y2="66" fill="none" stroke="#231f20" stroke-linejoin="round" stroke-width="0.35"/><line x1="-6" y1="150" x2="78" y2="66" fill="none" stroke="#231f20" stroke-linejoin="round" stroke-width="0.35"/><line y1="150" x2="78" y2="72" fill="none" stroke="#231f20" stroke-linejoin="round" stroke-width="0.35"/><line x1="-78" y1="144" y2="66" fill="none" stroke="#231f20" stroke-linejoin="round" stroke-width="0.35"/><line x1="-78" y1="150" x2="6" y2="66" fill="none" stroke="#231f20" stroke-linejoin="round" stroke-width="0.35"/><line x1="-72" y1="150" x2="6" y2="72" fill="none" stroke="#231f20" stroke-linejoin="round" stroke-width="0.35"/><line x1="66" y1="12" x2="84" y2="-6" fill="none" stroke="#231f20" stroke-linejoin="round" stroke-width="0.35"/><line x1="66" y1="18" x2="90" y2="-6" fill="none" stroke="#231f20" stroke-linejoin="round" stroke-width="0.35"/><line x1="66" y1="24" x2="96" y2="-6" fill="none" stroke="#231f20" stroke-linejoin="round" stroke-width="0.35"/><line x1="66" y1="30" x2="102" y2="-6" fill="none" stroke="#231f20" stroke-linejoin="round" stroke-width="0.35"/><line x1="66" y1="36" x2="108" y2="-6" fill="none" stroke="#231f20" stroke-linejoin="round" stroke-width="0.35"/><line x1="66" y1="42" x2="114" y2="-6" fill="none" stroke="#231f20" stroke-linejoin="round" stroke-width="0.35"/><line x1="66" y1="48" x2="120" y2="-6" fill="none" stroke="#231f20" stroke-linejoin="round" stroke-width="0.35"/><line x1="66" y1="54" x2="126" y2="-6" fill="none" stroke="#231f20" stroke-linejoin="round" stroke-width="0.35"/><line x1="66" y1="60" x2="132" y2="-6" fill="none" stroke="#231f20" stroke-linejoin="round" stroke-width="0.35"/><line x1="66" y1="66" x2="138" y2="-6" fill="none" stroke="#231f20" stroke-linejoin="round" stroke-width="0.35"/><line x1="66" y1="72" x2="144" y2="-6" fill="none" stroke="#231f20" stroke-linejoin="round" stroke-width="0.35"/><line x1="66" y1="78" x2="150" y2="-6" fill="none" stroke="#231f20" stroke-linejoin="round" stroke-width="0.35"/><line x1="72" y1="78" x2="150" fill="none" stroke="#231f20" stroke-linejoin="round" stroke-width="0.35"/><line x1="-6" y1="12" x2="12" y2="-6" fill="none" stroke="#231f20" stroke-linejoin="round" stroke-width="0.35"/><line x1="-6" y1="18" x2="18" y2="-6" fill="none" stroke="#231f20" stroke-linejoin="round" stroke-width="0.35"/><line x1="-6" y1="24" x2="24" y2="-6" fill="none" stroke="#231f20" stroke-linejoin="round" stroke-width="0.35"/><line x1="-6" y1="30" x2="30" y2="-6" fill="none" stroke="#231f20" stroke-linejoin="round" stroke-width="0.35"/><line x1="-6" y1="36" x2="36" y2="-6" fill="none" stroke="#231f20" stroke-linejoin="round" stroke-width="0.35"/><line x1="-6" y1="42" x2="42" y2="-6" fill="none" stroke="#231f20" stroke-linejoin="round" stroke-width="0.35"/><line x1="-6" y1="48" x2="48" y2="-6" fill="none" stroke="#231f20" stroke-linejoin="round" stroke-width="0.35"/><line x1="-6" y1="54" x2="54" y2="-6" fill="none" stroke="#231f20" stroke-linejoin="round" stroke-width="0.35"/><line x1="-6" y1="60" x2="60" y2="-6" fill="none" stroke="#231f20" stroke-linejoin="round" stroke-width="0.35"/><line x1="-6" y1="66" x2="66" y2="-6" fill="none" stroke="#231f20" stroke-linejoin="round" stroke-width="0.35"/><line x1="-6" y1="72" x2="72" y2="-6" fill="none" stroke="#231f20" stroke-linejoin="round" stroke-width="0.35"/><line x1="-6" y1="78" x2="78" y2="-6" fill="none" stroke="#231f20" stroke-linejoin="round" stroke-width="0.35"/><line y1="78" x2="78" fill="none" stroke="#231f20" stroke-linejoin="round" stroke-width="0.35"/><line x1="6" y1="78" x2="78" y2="6" fill="none" stroke="#231f20" stroke-linejoin="round" stroke-width="0.35"/><line x1="12" y1="78" x2="78" y2="12" fill="none" stroke="#231f20" stroke-linejoin="round" stroke-width="0.35"/><line x1="18" y1="78" x2="78" y2="18" fill="none" stroke="#231f20" stroke-linejoin="round" stroke-width="0.35"/><line x1="24" y1="78" x2="78" y2="24" fill="none" stroke="#231f20" stroke-linejoin="round" stroke-width="0.35"/><line x1="30" y1="78" x2="78" y2="30" fill="none" stroke="#231f20" stroke-linejoin="round" stroke-width="0.35"/><line x1="36" y1="78" x2="78" y2="36" fill="none" stroke="#231f20" stroke-linejoin="round" stroke-width="0.35"/><line x1="42" y1="78" x2="78" y2="42" fill="none" stroke="#231f20" stroke-linejoin="round" stroke-width="0.35"/><line x1="48" y1="78" x2="78" y2="48" fill="none" stroke="#231f20" stroke-linejoin="round" stroke-width="0.35"/><line x1="54" y1="78" x2="78" y2="54" fill="none" stroke="#231f20" stroke-linejoin="round" stroke-width="0.35"/><line x1="60" y1="78" x2="78" y2="60" fill="none" stroke="#231f20" stroke-linejoin="round" stroke-width="0.35"/><line x1="66" y1="78" x2="78" y2="66" fill="none" stroke="#231f20" stroke-linejoin="round" stroke-width="0.35"/><line x1="-78" y1="72" y2="-6" fill="none" stroke="#231f20" stroke-linejoin="round" stroke-width="0.35"/><line x1="-78" y1="78" x2="6" y2="-6" fill="none" stroke="#231f20" stroke-linejoin="round" stroke-width="0.35"/><line x1="-72" y1="78" x2="6" fill="none" stroke="#231f20" stroke-linejoin="round" stroke-width="0.35"/><line x1="-66" y1="78" x2="6" y2="6" fill="none" stroke="#231f20" stroke-linejoin="round" stroke-width="0.35"/><line x1="-60" y1="78" x2="6" y2="12" fill="none" stroke="#231f20" stroke-linejoin="round" stroke-width="0.35"/><line x1="-54" y1="78" x2="6" y2="18" fill="none" stroke="#231f20" stroke-linejoin="round" stroke-width="0.35"/><line x1="-48" y1="78" x2="6" y2="24" fill="none" stroke="#231f20" stroke-linejoin="round" stroke-width="0.35"/><line x1="-42" y1="78" x2="6" y2="30" fill="none" stroke="#231f20" stroke-linejoin="round" stroke-width="0.35"/><line x1="-36" y1="78" x2="6" y2="36" fill="none" stroke="#231f20" stroke-linejoin="round" stroke-width="0.35"/><line x1="-30" y1="78" x2="6" y2="42" fill="none" stroke="#231f20" stroke-linejoin="round" stroke-width="0.35"/><line x1="-24" y1="78" x2="6" y2="48" fill="none" stroke="#231f20" stroke-linejoin="round" stroke-width="0.35"/><line x1="-18" y1="78" x2="6" y2="54" fill="none" stroke="#231f20" stroke-linejoin="round" stroke-width="0.35"/><line x1="-12" y1="78" x2="6" y2="60" fill="none" stroke="#231f20" stroke-linejoin="round" stroke-width="0.35"/><line x1="-6" y1="78" x2="6" y2="66" fill="none" stroke="#231f20" stroke-linejoin="round" stroke-width="0.35"/><line x1="66" x2="144" y2="-78" fill="none" stroke="#231f20" stroke-linejoin="round" stroke-width="0.35"/><line x1="66" y1="6" x2="150" y2="-78" fill="none" stroke="#231f20" stroke-linejoin="round" stroke-width="0.35"/><line x1="72" y1="6" x2="150" y2="-72" fill="none" stroke="#231f20" stroke-linejoin="round" stroke-width="0.35"/><line x1="-6" x2="72" y2="-78" fill="none" stroke="#231f20" stroke-linejoin="round" stroke-width="0.35"/><line x1="-6" y1="6" x2="78" y2="-78" fill="none" stroke="#231f20" stroke-linejoin="round" stroke-width="0.35"/><line y1="6" x2="78" y2="-72" fill="none" stroke="#231f20" stroke-linejoin="round" stroke-width="0.35"/><line x1="6" y1="6" x2="78" y2="-66" fill="none" stroke="#231f20" stroke-linejoin="round" stroke-width="0.35"/><line x1="12" y1="6" x2="78" y2="-60" fill="none" stroke="#231f20" stroke-linejoin="round" stroke-width="0.35"/><line x1="18" y1="6" x2="78" y2="-54" fill="none" stroke="#231f20" stroke-linejoin="round" stroke-width="0.35"/><line x1="24" y1="6" x2="78" y2="-48" fill="none" stroke="#231f20" stroke-linejoin="round" stroke-width="0.35"/><line x1="30" y1="6" x2="78" y2="-42" fill="none" stroke="#231f20" stroke-linejoin="round" stroke-width="0.35"/><line x1="36" y1="6" x2="78" y2="-36" fill="none" stroke="#231f20" stroke-linejoin="round" stroke-width="0.35"/><line x1="42" y1="6" x2="78" y2="-30" fill="none" stroke="#231f20" stroke-linejoin="round" stroke-width="0.35"/><line x1="48" y1="6" x2="78" y2="-24" fill="none" stroke="#231f20" stroke-linejoin="round" stroke-width="0.35"/><line x1="54" y1="6" x2="78" y2="-18" fill="none" stroke="#231f20" stroke-linejoin="round" stroke-width="0.35"/><line x1="60" y1="6" x2="78" y2="-12" fill="none" stroke="#231f20" stroke-linejoin="round" stroke-width="0.35"/><line x1="66" y1="6" x2="78" y2="-6" fill="none" stroke="#231f20" stroke-linejoin="round" stroke-width="0.35"/><line x1="-78" y2="-78" fill="none" stroke="#231f20" stroke-linejoin="round" stroke-width="0.35"/><line x1="-78" y1="6" x2="6" y2="-78" fill="none" stroke="#231f20" stroke-linejoin="round" stroke-width="0.35"/><line x1="-72" y1="6" x2="6" y2="-72" fill="none" stroke="#231f20" stroke-linejoin="round" stroke-width="0.35"/><line x1="-66" y1="6" x2="6" y2="-66" fill="none" stroke="#231f20" stroke-linejoin="round" stroke-width="0.35"/><line x1="-60" y1="6" x2="6" y2="-60" fill="none" stroke="#231f20" stroke-linejoin="round" stroke-width="0.35"/><line x1="-54" y1="6" x2="6" y2="-54" fill="none" stroke="#231f20" stroke-linejoin="round" stroke-width="0.35"/><line x1="-48" y1="6" x2="6" y2="-48" fill="none" stroke="#231f20" stroke-linejoin="round" stroke-width="0.35"/><line x1="-42" y1="6" x2="6" y2="-42" fill="none" stroke="#231f20" stroke-linejoin="round" stroke-width="0.35"/><line x1="-36" y1="6" x2="6" y2="-36" fill="none" stroke="#231f20" stroke-linejoin="round" stroke-width="0.35"/><line x1="-30" y1="6" x2="6" y2="-30" fill="none" stroke="#231f20" stroke-linejoin="round" stroke-width="0.35"/><line x1="-24" y1="6" x2="6" y2="-24" fill="none" stroke="#231f20" stroke-linejoin="round" stroke-width="0.35"/><line x1="-18" y1="6" x2="6" y2="-18" fill="none" stroke="#231f20" stroke-linejoin="round" stroke-width="0.35"/><line x1="-12" y1="6" x2="6" y2="-12" fill="none" stroke="#231f20" stroke-linejoin="round" stroke-width="0.35"/><line x1="-6" y1="6" x2="6" y2="-6" fill="none" stroke="#231f20" stroke-linejoin="round" stroke-width="0.35"/></pattern><pattern id="_10_dpi_10_" data-name="10 dpi 10%" width="28.8" height="28.8" patternTransform="translate(-17.98 -20.4)" patternUnits="userSpaceOnUse" viewBox="0 0 28.8 28.8"><rect width="28.8" height="28.8" fill="none"/><circle cx="28.8" cy="28.8" r="0.72" fill="#231f20"/><path d="M14.4,29.52a.72.72,0,1,0-.72-.72A.72.72,0,0,0,14.4,29.52Z" fill="#231f20"/><path d="M28.8,15.12a.72.72,0,1,0-.72-.72A.72.72,0,0,0,28.8,15.12Z" fill="#231f20"/><path d="M14.4,15.12a.72.72,0,1,0-.72-.72A.72.72,0,0,0,14.4,15.12Z" fill="#231f20"/><path d="M7.2,22.32a.72.72,0,1,0-.72-.72A.72.72,0,0,0,7.2,22.32Z" fill="#231f20"/><path d="M21.6,22.32a.72.72,0,1,0-.72-.72A.72.72,0,0,0,21.6,22.32Z" fill="#231f20"/><path d="M7.2,7.92a.72.72,0,1,0-.72-.72A.72.72,0,0,0,7.2,7.92Z" fill="#231f20"/><path d="M21.6,7.92a.72.72,0,1,0-.72-.72A.72.72,0,0,0,21.6,7.92Z" fill="#231f20"/><circle cy="28.8" r="0.72" fill="#231f20"/><path d="M0,15.12a.72.72,0,0,0,0-1.44.72.72,0,0,0-.72.72A.72.72,0,0,0,0,15.12Z" fill="#231f20"/><path d="M28.8.72A.72.72,0,0,0,29.52,0a.72.72,0,0,0-.72-.72.72.72,0,0,0-.72.72A.72.72,0,0,0,28.8.72Z" fill="#231f20"/><path d="M14.4.72A.72.72,0,0,0,15.12,0a.72.72,0,0,0-.72-.72.72.72,0,0,0-.72.72A.72.72,0,0,0,14.4.72Z" fill="#231f20"/><path d="M0,.72A.72.72,0,0,0,.72,0,.72.72,0,0,0,0-.72.72.72,0,0,0-.72,0,.72.72,0,0,0,0,.72Z" fill="#231f20"/></pattern><pattern id="Stipple_Fine" data-name="Stipple Fine" width="72" height="72" patternTransform="translate(-18 -6)" patternUnits="userSpaceOnUse" viewBox="0 0 72 72"><rect width="72" height="72" fill="none"/><path d="M56.43,72.69a.35.35,0,0,1-.26-.11.39.39,0,0,1-.11-.27.36.36,0,0,1,.11-.26.4.4,0,0,1,.53,0,.36.36,0,0,1,.11.26.39.39,0,0,1-.11.27A.37.37,0,0,1,56.43,72.69Z" fill="#231f20"/><path d="M3.75,72.13A.36.36,0,0,1,3.48,72a.35.35,0,0,1-.11-.26.36.36,0,0,1,.11-.26.39.39,0,0,1,.53,0,.36.36,0,0,1,.11.26A.39.39,0,0,1,4,72,.36.36,0,0,1,3.75,72.13Z" fill="#231f20"/><path d="M18.56,72.13a.36.36,0,0,1-.27-.12.36.36,0,0,1-.11-.26.34.34,0,0,1,.12-.26.38.38,0,0,1,.53,0,.4.4,0,0,1,.1.26.39.39,0,0,1-.1.27A.4.4,0,0,1,18.56,72.13Z" fill="#231f20"/><path d="M40.31,72.31A.35.35,0,0,1,40,72.2a.34.34,0,0,1-.1-.26.35.35,0,0,1,.1-.26.39.39,0,0,1,.54,0,.38.38,0,0,1,.1.27.39.39,0,0,1-.11.27A.34.34,0,0,1,40.31,72.31Z" fill="#231f20"/><path d="M12.93,69.88a.32.32,0,0,1-.26-.12.35.35,0,0,1-.11-.26.39.39,0,0,1,.11-.27.4.4,0,0,1,.53,0,.35.35,0,0,1,.11.26.39.39,0,0,1-.11.27A.37.37,0,0,1,12.93,69.88Z" fill="#231f20"/><path d="M1.12,69.69a.39.39,0,0,1-.27-.11.42.42,0,0,1-.1-.26.39.39,0,0,1,.11-.27.4.4,0,0,1,.53,0,.39.39,0,0,1,.11.27.38.38,0,0,1-.11.26A.39.39,0,0,1,1.12,69.69Z" fill="#231f20"/><path d="M10.5,68.38a.36.36,0,0,1-.27-.12.39.39,0,0,1-.11-.26.36.36,0,0,1,.11-.26.39.39,0,0,1,.53,0,.36.36,0,0,1,.11.26.39.39,0,0,1-.11.27A.36.36,0,0,1,10.5,68.38Z" fill="#231f20"/><path d="M19.68,67.25a.38.38,0,0,1-.26-.11.36.36,0,0,1-.11-.26.37.37,0,0,1,.11-.27.38.38,0,0,1,.64.27.36.36,0,0,1-.11.26A.39.39,0,0,1,19.68,67.25Z" fill="#231f20"/><path d="M3.75,72.13A.36.36,0,0,1,3.48,72a.39.39,0,0,1-.11-.26.36.36,0,0,1,.11-.26.4.4,0,0,1,.53,0,.33.33,0,0,1,.11.26A.39.39,0,0,1,4,72,.36.36,0,0,1,3.75,72.13Z" fill="#231f20"/><path d="M7.12,65.75a.39.39,0,0,1-.27-.11.4.4,0,0,1-.1-.26.37.37,0,0,1,.11-.27.4.4,0,0,1,.53,0,.37.37,0,0,1,.11.27.36.36,0,0,1-.11.26A.39.39,0,0,1,7.12,65.75Z" fill="#231f20"/><path d="M24.56,70.63a.36.36,0,0,1-.27-.12.34.34,0,0,1-.1-.26A.33.33,0,0,1,24.3,70a.39.39,0,0,1,.53,0,.36.36,0,0,1,.11.26.38.38,0,0,1-.38.38Z" fill="#231f20"/><path d="M27,71.94a.34.34,0,0,1-.27-.12.33.33,0,0,1-.11-.25.34.34,0,0,1,.12-.27.38.38,0,0,1,.52,0,.35.35,0,0,1,.11.27.38.38,0,0,1-.11.26A.36.36,0,0,1,27,71.94Z" fill="#231f20"/><path d="M29.06,67.63a.4.4,0,0,1-.27-.12.38.38,0,0,1-.1-.26A.36.36,0,0,1,28.8,67a.38.38,0,0,1,.53,0,.4.4,0,0,1,.1.26.38.38,0,0,1-.1.27A.39.39,0,0,1,29.06,67.63Z" fill="#231f20"/><path d="M40.87,66.69a.36.36,0,0,1-.26-.11.37.37,0,0,1-.11-.27.36.36,0,0,1,.11-.26.39.39,0,0,1,.53,0,.38.38,0,0,1,.11.26.38.38,0,0,1-.38.38Z" fill="#231f20"/><path d="M49.31,68a.39.39,0,0,1-.27-.11.41.41,0,0,1-.11-.26.4.4,0,0,1,.12-.27.38.38,0,0,1,.52,0,.36.36,0,0,1,.12.27.38.38,0,0,1-.11.26A.39.39,0,0,1,49.31,68Z" fill="#231f20"/><path d="M35.06,66.13a.39.39,0,0,1-.27-.11.41.41,0,0,1-.1-.27.39.39,0,0,1,.11-.27.4.4,0,0,1,.53,0,.39.39,0,0,1,.11.26.4.4,0,0,1-.12.27A.35.35,0,0,1,35.06,66.13Z" fill="#231f20"/><path d="M24.56,66.13a.36.36,0,0,1-.27-.12.34.34,0,0,1-.1-.26.39.39,0,0,1,.11-.27.4.4,0,0,1,.53,0,.38.38,0,0,1-.27.64Z" fill="#231f20"/><path d="M15.18,66.13a.34.34,0,0,1-.26-.12.35.35,0,0,1-.11-.26.36.36,0,0,1,.11-.26.38.38,0,0,1,.53,0,.36.36,0,0,1,.11.26.38.38,0,0,1-.38.38Z" fill="#231f20"/><path d="M43.87,63.5a.38.38,0,0,1-.26-.11.35.35,0,0,1-.11-.26.37.37,0,0,1,.11-.27.38.38,0,0,1,.64.27.32.32,0,0,1-.12.26A.35.35,0,0,1,43.87,63.5Z" fill="#231f20"/><path d="M46.68,71.75a.38.38,0,0,1-.37-.37.38.38,0,1,1,.75,0,.36.36,0,0,1-.11.26A.37.37,0,0,1,46.68,71.75Z" fill="#231f20"/><path d="M18.56,72.13a.36.36,0,0,1-.27-.12.39.39,0,0,1-.11-.26.34.34,0,0,1,.12-.26.38.38,0,0,1,.53,0,.4.4,0,0,1,.1.26.39.39,0,0,1-.11.27A.36.36,0,0,1,18.56,72.13Z" fill="#231f20"/><path d="M32.43,70.82a.38.38,0,0,1-.26-.11.39.39,0,0,1-.11-.27.36.36,0,0,1,.11-.26.39.39,0,0,1,.53,0,.4.4,0,0,1,.11.27.38.38,0,0,1-.38.38Z" fill="#231f20"/><path d="M40.31,72.32A.4.4,0,0,1,40,72.2a.38.38,0,0,1-.1-.26.37.37,0,0,1,.64-.26.38.38,0,0,1,.1.26.38.38,0,0,1-.37.38Z" fill="#231f20"/><path d="M50.62,48.5a.38.38,0,0,1-.37-.37.38.38,0,1,1,.75,0,.35.35,0,0,1-.11.26A.39.39,0,0,1,50.62,48.5Z" fill="#231f20"/><path d="M58.31,48.13A.36.36,0,0,1,58,48a.39.39,0,0,1-.11-.26.34.34,0,0,1,.12-.26.39.39,0,0,1,.53,0,.36.36,0,0,1,.11.26.4.4,0,0,1-.12.27A.36.36,0,0,1,58.31,48.13Z" fill="#231f20"/><path d="M62.81,48.69a.39.39,0,0,1-.27-.11.38.38,0,0,1-.11-.26.39.39,0,0,1,.11-.27.4.4,0,0,1,.54,0,.39.39,0,0,1,.11.27.38.38,0,0,1-.11.26A.39.39,0,0,1,62.81,48.69Z" fill="#231f20"/><path d="M66.93,71a.35.35,0,0,1-.26-.11.36.36,0,0,1-.11-.26.39.39,0,0,1,.11-.27.4.4,0,0,1,.53,0,.37.37,0,0,1,.11.27.36.36,0,0,1-.11.26A.37.37,0,0,1,66.93,71Z" fill="#231f20"/><path d="M52.31,61.25a.39.39,0,0,1-.27-.11.36.36,0,0,1-.11-.26.39.39,0,0,1,.11-.27.4.4,0,0,1,.54,0,.38.38,0,0,1,.1.27.35.35,0,0,1-.1.26A.39.39,0,0,1,52.31,61.25Z" fill="#231f20"/><path d="M70.5,55.25a.39.39,0,0,1-.27-.11.36.36,0,0,1-.11-.26.34.34,0,0,1,.12-.27.39.39,0,0,1,.53,0,.38.38,0,0,1,.1.26.38.38,0,0,1-.37.37Z" fill="#231f20"/><path d="M71.06,68.38a.4.4,0,0,1-.27-.12.38.38,0,0,1-.1-.26.39.39,0,0,1,.11-.27.4.4,0,0,1,.53,0,.38.38,0,0,1-.27.64Z" fill="#231f20"/><path d="M63.94,53.19a.37.37,0,0,1-.27-.11.35.35,0,0,1-.11-.26.38.38,0,0,1,.64-.27.37.37,0,0,1,.11.27.38.38,0,0,1-.37.37Z" fill="#231f20"/><path d="M61.87,71.94a.39.39,0,0,1-.27-.11.4.4,0,0,1-.1-.26.39.39,0,0,1,.11-.27.4.4,0,0,1,.53,0,.39.39,0,0,1,.11.27.34.34,0,0,1-.12.26A.35.35,0,0,1,61.87,71.94Z" fill="#231f20"/><path d="M53.62,52.82a.37.37,0,0,1-.26-.12.35.35,0,0,1-.11-.26.39.39,0,0,1,.11-.27.4.4,0,0,1,.53,0,.39.39,0,0,1,.11.27.4.4,0,0,1-.11.27A.44.44,0,0,1,53.62,52.82Z" fill="#231f20"/><path d="M51.75,67.07a.4.4,0,0,1-.27-.12.35.35,0,0,1-.11-.26.4.4,0,0,1,.11-.27.39.39,0,0,1,.53,0,.36.36,0,0,1,.11.26A.39.39,0,0,1,52,67,.41.41,0,0,1,51.75,67.07Z" fill="#231f20"/><path d="M57.37,55.44a.35.35,0,0,1-.26-.11.36.36,0,0,1-.11-.26.39.39,0,0,1,.11-.27.4.4,0,0,1,.53,0,.39.39,0,0,1,.11.27.38.38,0,0,1-.11.26A.39.39,0,0,1,57.37,55.44Z" fill="#231f20"/><path d="M60.94,56.19a.37.37,0,0,1-.27-.11.36.36,0,0,1-.11-.26.35.35,0,0,1,.11-.27.4.4,0,0,1,.53,0,.37.37,0,0,1,.11.27.38.38,0,0,1-.11.26A.36.36,0,0,1,60.94,56.19Z" fill="#231f20"/><path d="M56.43,69.69a.38.38,0,0,1-.37-.37.38.38,0,1,1,.75,0,.38.38,0,0,1-.11.26A.4.4,0,0,1,56.43,69.69Z" fill="#231f20"/><path d="M61.31,63.5a.39.39,0,0,1-.27-.11.38.38,0,0,1-.11-.26.36.36,0,0,1,.12-.27.38.38,0,0,1,.52,0,.36.36,0,0,1,.12.27.38.38,0,0,1-.11.26A.39.39,0,0,1,61.31,63.5Z" fill="#231f20"/><path d="M57.94,61.82a.38.38,0,0,1-.27-.12.36.36,0,0,1-.11-.26.4.4,0,0,1,.11-.27.38.38,0,0,1,.52,0,.37.37,0,0,1,.12.27.36.36,0,0,1-.11.26A.35.35,0,0,1,57.94,61.82Z" fill="#231f20"/><path d="M67.12,65.19a.39.39,0,0,1-.27-.11.38.38,0,0,1-.1-.26.37.37,0,0,1,.11-.27.4.4,0,0,1,.53,0,.39.39,0,0,1,.11.27.34.34,0,0,1-.12.26A.35.35,0,0,1,67.12,65.19Z" fill="#231f20"/><path d="M69.19,60.32a.38.38,0,0,1-.27-.12.35.35,0,0,1-.11-.26.37.37,0,0,1,.64-.26.35.35,0,0,1,.11.26.36.36,0,0,1-.12.27A.36.36,0,0,1,69.19,60.32Z" fill="#231f20"/><path d="M65.06,59.19a.38.38,0,0,1-.38-.38.37.37,0,0,1,.12-.26.4.4,0,0,1,.53,0,.41.41,0,0,1,.11.26.38.38,0,0,1-.38.38Z" fill="#231f20"/><path d="M1.69,56.94a.35.35,0,0,1-.27-.11.38.38,0,0,1-.11-.26.39.39,0,0,1,.11-.27.4.4,0,0,1,.53,0,.39.39,0,0,1,.11.27.38.38,0,0,1-.37.37Z" fill="#231f20"/><path d="M29.25,62.75a.38.38,0,0,1-.38-.37.36.36,0,0,1,.12-.27.38.38,0,0,1,.52,0,.35.35,0,0,1,.11.27.39.39,0,0,1-.11.27A.4.4,0,0,1,29.25,62.75Z" fill="#231f20"/><path d="M15.56,51.69a.39.39,0,0,1-.27-.11.36.36,0,0,1-.11-.26.36.36,0,0,1,.12-.27.38.38,0,0,1,.52,0,.39.39,0,0,1,.12.28.38.38,0,0,1-.11.26A.39.39,0,0,1,15.56,51.69Z" fill="#231f20"/><path d="M4.87,61.25a.38.38,0,0,1-.37-.37.39.39,0,0,1,.11-.27.4.4,0,0,1,.53,0,.39.39,0,0,1,.11.27.36.36,0,0,1-.11.26A.39.39,0,0,1,4.87,61.25Z" fill="#231f20"/><path d="M18.75,54.5a.39.39,0,0,1-.27-.11.35.35,0,0,1-.1-.26.43.43,0,0,1,.1-.27.4.4,0,0,1,.53,0,.39.39,0,0,1,.11.27.38.38,0,0,1-.11.26A.36.36,0,0,1,18.75,54.5Z" fill="#231f20"/><path d="M9.75,51.13A.36.36,0,0,1,9.48,51a.35.35,0,0,1-.11-.26.4.4,0,0,1,.12-.27.38.38,0,0,1,.52,0,.36.36,0,0,1,.12.26A.4.4,0,0,1,10,51,.36.36,0,0,1,9.75,51.13Z" fill="#231f20"/><path d="M18.56,48.5a.39.39,0,0,1-.27-.11.38.38,0,0,1-.11-.26.36.36,0,0,1,.12-.27.4.4,0,0,1,.53,0,.43.43,0,0,1,.1.27.4.4,0,0,1-.1.26A.4.4,0,0,1,18.56,48.5Z" fill="#231f20"/><path d="M21.37,56.75a.39.39,0,0,1-.27-.11.42.42,0,0,1-.1-.26.39.39,0,0,1,.11-.27.4.4,0,0,1,.53,0,.39.39,0,0,1,.11.27.36.36,0,0,1-.11.26A.39.39,0,0,1,21.37,56.75Z" fill="#231f20"/><path d="M20.62,60.32a.38.38,0,0,1-.37-.38.36.36,0,0,1,.11-.26.38.38,0,0,1,.53,0,.36.36,0,0,1,.11.26.4.4,0,0,1-.11.27A.39.39,0,0,1,20.62,60.32Z" fill="#231f20"/><path d="M7.12,55.82a.38.38,0,0,1-.37-.38.37.37,0,0,1,.64-.26.35.35,0,0,1,.11.26.4.4,0,0,1-.11.27A.39.39,0,0,1,7.12,55.82Z" fill="#231f20"/><path d="M13.31,60.69a.39.39,0,0,1-.27-.11.41.41,0,0,1-.11-.27.34.34,0,0,1,.12-.26.4.4,0,0,1,.53,0,.36.36,0,0,1,.11.26.38.38,0,0,1-.12.27A.35.35,0,0,1,13.31,60.69Z" fill="#231f20"/><path d="M15,57.31a.39.39,0,0,1-.27-.11.36.36,0,0,1-.11-.26.4.4,0,0,1,.12-.27.37.37,0,0,1,.52,0,.35.35,0,0,1,.11.26.36.36,0,0,1-.11.27A.4.4,0,0,1,15,57.31Z" fill="#231f20"/><path d="M30.18,50.19a.38.38,0,0,1-.26-.11.37.37,0,0,1-.11-.27.36.36,0,0,1,.11-.26.39.39,0,0,1,.53,0,.38.38,0,0,1,.11.26.38.38,0,0,1-.38.38Z" fill="#231f20"/><path d="M36,57.69a.38.38,0,0,1-.38-.37.36.36,0,0,1,.12-.27.37.37,0,0,1,.52,0,.37.37,0,0,1,.11.27.35.35,0,0,1-.11.26A.36.36,0,0,1,36,57.69Z" fill="#231f20"/><path d="M42.37,59.75a.38.38,0,0,1-.37-.37.37.37,0,0,1,.11-.27.38.38,0,0,1,.64.27.38.38,0,0,1-.11.26A.39.39,0,0,1,42.37,59.75Z" fill="#231f20"/><path d="M46.68,53a.42.42,0,0,1-.26-.1.4.4,0,0,1-.11-.27.38.38,0,1,1,.75,0,.36.36,0,0,1-.11.26A.39.39,0,0,1,46.68,53Z" fill="#231f20"/><path d="M46.87,59a.36.36,0,0,1-.26-.11.35.35,0,0,1-.11-.26.37.37,0,0,1,.11-.27.39.39,0,0,1,.53,0,.37.37,0,0,1,.11.27.32.32,0,0,1-.12.26A.35.35,0,0,1,46.87,59Z" fill="#231f20"/><path d="M28.68,52.63a.38.38,0,0,1-.26-.11.37.37,0,0,1-.11-.27.36.36,0,0,1,.11-.26A.39.39,0,0,1,29,52a.36.36,0,0,1,.11.26.38.38,0,0,1-.38.38Z" fill="#231f20"/><path d="M30.75,57.88a.38.38,0,0,1-.38-.38.36.36,0,0,1,.11-.26.39.39,0,0,1,.53,0,.38.38,0,0,1-.26.64Z" fill="#231f20"/><path d="M26.06,56a.36.36,0,0,1-.26-.11.35.35,0,0,1-.11-.26.38.38,0,0,1,.1-.27.4.4,0,0,1,.54,0,.39.39,0,0,1,.11.27.36.36,0,0,1-.12.26A.35.35,0,0,1,26.06,56Z" fill="#231f20"/><path d="M39.18,55.63a.36.36,0,0,1-.26-.11.39.39,0,0,1-.11-.27.36.36,0,0,1,.11-.26.39.39,0,0,1,.53,0,.36.36,0,0,1,.11.26.39.39,0,0,1-.11.27A.37.37,0,0,1,39.18,55.63Z" fill="#231f20"/><path d="M42.93,49.82a.39.39,0,0,1-.26-.12.36.36,0,0,1-.11-.26.4.4,0,0,1,.11-.27.39.39,0,0,1,.53,0,.39.39,0,0,1,0,.54A.44.44,0,0,1,42.93,49.82Z" fill="#231f20"/><path d="M44.06,55.63a.36.36,0,0,1-.26-.11.35.35,0,0,1-.11-.27.35.35,0,0,1,.1-.26.37.37,0,0,1,.64.26.43.43,0,0,1-.1.27A.4.4,0,0,1,44.06,55.63Z" fill="#231f20"/><path d="M26.43,47.94a.38.38,0,0,1-.26-.11.36.36,0,0,1-.11-.26.37.37,0,0,1,.11-.27.38.38,0,0,1,.64.27.38.38,0,0,1-.11.26A.39.39,0,0,1,26.43,47.94Z" fill="#231f20"/><path d="M49.31,52.44a.38.38,0,0,1-.38-.37.4.4,0,0,1,.12-.28.41.41,0,0,1,.53,0,.41.41,0,0,1,.11.27.37.37,0,0,1-.12.26A.35.35,0,0,1,49.31,52.44Z" fill="#231f20"/><path d="M35.62,48.5a.38.38,0,0,1-.37-.37.37.37,0,0,1,.11-.27.4.4,0,0,1,.53,0,.39.39,0,0,1,.11.27.38.38,0,0,1-.11.26A.39.39,0,0,1,35.62,48.5Z" fill="#231f20"/><path d="M36,52.44a.38.38,0,0,1-.38-.37.36.36,0,0,1,.12-.27.37.37,0,0,1,.52,0,.37.37,0,0,1,.11.27.35.35,0,0,1-.11.26A.36.36,0,0,1,36,52.44Z" fill="#231f20"/><path d="M2.81,49.07A.4.4,0,0,1,2.54,49a.35.35,0,0,1-.11-.26.4.4,0,0,1,.12-.27.38.38,0,1,1,.26.65Z" fill="#231f20"/><path d="M5.25,48.13A.38.38,0,0,1,5,48a.35.35,0,0,1-.11-.26A.36.36,0,0,1,5,47.49a.39.39,0,0,1,.53,0,.37.37,0,0,1,.12.26.4.4,0,0,1-.12.27A.36.36,0,0,1,5.25,48.13Z" fill="#231f20"/><path d="M3.37,2.19A.38.38,0,0,1,3,1.82a.38.38,0,1,1,.75,0,.36.36,0,0,1-.11.26A.39.39,0,0,1,3.37,2.19Z" fill="#231f20"/><path d="M10.12,6.5a.39.39,0,0,1-.27-.11.38.38,0,0,1-.1-.26.39.39,0,0,1,.11-.27.4.4,0,0,1,.53,0,.39.39,0,0,1,.11.27.32.32,0,0,1-.12.26A.35.35,0,0,1,10.12,6.5Z" fill="#231f20"/><path d="M4.12,6.69a.39.39,0,0,1-.27-.11.4.4,0,0,1-.1-.26.37.37,0,0,1,.11-.27.4.4,0,0,1,.53,0,.37.37,0,0,1,.11.27.36.36,0,0,1-.11.26A.39.39,0,0,1,4.12,6.69Z" fill="#231f20"/><path d="M22.5,4.07A.4.4,0,0,1,22.23,4a.39.39,0,0,1-.11-.26.4.4,0,0,1,.11-.27.4.4,0,0,1,.53,0,.36.36,0,0,1,.11.27.39.39,0,0,1-.11.27A.41.41,0,0,1,22.5,4.07Z" fill="#231f20"/><path d="M31.12,1.44a.38.38,0,0,1-.26-.11.39.39,0,0,1-.11-.27A.36.36,0,0,1,30.86.8a.39.39,0,0,1,.53,0,.38.38,0,0,1,.11.26.38.38,0,0,1-.38.38Z" fill="#231f20"/><path d="M46.87,5a.38.38,0,0,1-.26-.11.36.36,0,0,1-.11-.26.39.39,0,0,1,.11-.27.37.37,0,0,1,.52,0,.36.36,0,0,1,.12.27.36.36,0,0,1-.11.26A.39.39,0,0,1,46.87,5Z" fill="#231f20"/><path d="M33.75,5.57a.4.4,0,0,1-.27-.12.39.39,0,0,1-.11-.26.4.4,0,0,1,.12-.27.37.37,0,0,1,.52,0,.35.35,0,0,1,.11.26.39.39,0,0,1-.11.27A.41.41,0,0,1,33.75,5.57Z" fill="#231f20"/><path d="M22.87,7.44a.36.36,0,0,1-.37-.38.36.36,0,0,1,.11-.26.39.39,0,0,1,.53,0,.38.38,0,0,1,.11.26.34.34,0,0,1-.12.27A.35.35,0,0,1,22.87,7.44Z" fill="#231f20"/><path d="M13.31,2.75A.39.39,0,0,1,13,2.64a.36.36,0,0,1-.11-.26.36.36,0,0,1,.12-.27.4.4,0,0,1,.53,0,.39.39,0,0,1,.11.27.36.36,0,0,1-.11.26A.39.39,0,0,1,13.31,2.75Z" fill="#231f20"/><path d="M15.94,5.56a.35.35,0,0,1-.27-.11.35.35,0,0,1-.11-.26.37.37,0,0,1,.64-.26.35.35,0,0,1,.11.26.39.39,0,0,1-.11.27A.42.42,0,0,1,15.94,5.56Z" fill="#231f20"/><path d="M41.25,7.63A.39.39,0,0,1,41,7.52a.4.4,0,0,1-.11-.27A.38.38,0,0,1,41,7a.39.39,0,0,1,.54,0,.4.4,0,0,1,.1.26.38.38,0,0,1-.37.38Z" fill="#231f20"/><path d="M7.5,3.88a.36.36,0,0,1-.27-.12.39.39,0,0,1-.11-.26.36.36,0,0,1,.11-.26.38.38,0,0,1,.53,0,.36.36,0,0,1,.11.26.39.39,0,0,1-.11.27A.36.36,0,0,1,7.5,3.88Z" fill="#231f20"/><path d="M29.62,7.81a.33.33,0,0,1-.26-.11.35.35,0,0,1-.11-.26.4.4,0,0,1,.11-.27.39.39,0,0,1,.53,0,.39.39,0,0,1,0,.54A.38.38,0,0,1,29.62,7.81Z" fill="#231f20"/><path d="M10.69,9.13A.34.34,0,0,1,10.42,9a.35.35,0,0,1-.11-.26.36.36,0,0,1,.11-.26.38.38,0,0,1,.53,0,.36.36,0,0,1,.11.26A.39.39,0,0,1,11,9,.38.38,0,0,1,10.69,9.13Z" fill="#231f20"/><path d="M34.5,9.32a.4.4,0,0,1-.27-.12.39.39,0,0,1-.11-.26.4.4,0,0,1,.12-.27.38.38,0,0,1,.52,0,.35.35,0,0,1,.11.26.39.39,0,0,1-.11.27A.41.41,0,0,1,34.5,9.32Z" fill="#231f20"/><path d="M16.68,1.07A.37.37,0,0,1,16.42,1a.35.35,0,0,1-.11-.26.4.4,0,0,1,.11-.27.4.4,0,0,1,.53,0,.4.4,0,0,1,.11.27A.39.39,0,0,1,17,1,.44.44,0,0,1,16.68,1.07Z" fill="#231f20"/><path d="M36.93,1.63a.36.36,0,0,1-.26-.11.39.39,0,0,1-.11-.27A.36.36,0,0,1,36.67,1a.39.39,0,0,1,.53,0,.36.36,0,0,1,.11.26.4.4,0,0,1-.11.27A.37.37,0,0,1,36.93,1.63Z" fill="#231f20"/><path d="M41.81,3.69a.39.39,0,0,1-.27-.11.35.35,0,0,1-.1-.26.36.36,0,0,1,.1-.27.4.4,0,0,1,.54,0,.36.36,0,0,1,.1.27.4.4,0,0,1-.1.26A.39.39,0,0,1,41.81,3.69Z" fill="#231f20"/><path d="M45,8.75a.39.39,0,0,1-.27-.11.36.36,0,0,1-.11-.26.38.38,0,1,1,.75,0,.38.38,0,0,1-.37.37Z" fill="#231f20"/><path d="M12.93,24.88a.34.34,0,0,1-.26-.12.35.35,0,0,1-.11-.26.36.36,0,0,1,.11-.26.38.38,0,0,1,.53,0,.36.36,0,0,1,.11.26.38.38,0,0,1-.38.38Z" fill="#231f20"/><path d="M1.12,24.69a.39.39,0,0,1-.27-.11.42.42,0,0,1-.1-.26.39.39,0,0,1,.11-.27.39.39,0,0,1,.53,0,.39.39,0,0,1,.11.27.38.38,0,0,1-.11.26A.39.39,0,0,1,1.12,24.69Z" fill="#231f20"/><path d="M5.44,30.69a.37.37,0,0,1-.27-.11.38.38,0,0,1-.11-.26.39.39,0,0,1,.11-.27.4.4,0,0,1,.53,0,.39.39,0,0,1,.11.27.38.38,0,0,1-.37.37Z" fill="#231f20"/><path d="M3.37,37.07A.38.38,0,0,1,3.11,37a.39.39,0,0,1,0-.54.4.4,0,0,1,.53,0,.38.38,0,0,1-.27.65Z" fill="#231f20"/><path d="M10.12,41.38a.36.36,0,0,1-.27-.12.38.38,0,0,1-.1-.26.39.39,0,0,1,.11-.27.4.4,0,0,1,.53,0,.35.35,0,0,1,.11.26.38.38,0,0,1-.38.38Z" fill="#231f20"/><path d="M4.12,41.57a.4.4,0,0,1-.27-.12.38.38,0,0,1-.1-.26.4.4,0,0,1,.11-.27.4.4,0,0,1,.53,0,.4.4,0,0,1,.11.27.36.36,0,0,1-.12.27A.39.39,0,0,1,4.12,41.57Z" fill="#231f20"/><path d="M10.5,23.38a.36.36,0,0,1-.27-.12.35.35,0,0,1-.11-.26.36.36,0,0,1,.11-.26.38.38,0,0,1,.53,0,.33.33,0,0,1,.11.26.39.39,0,0,1-.11.27A.36.36,0,0,1,10.5,23.38Z" fill="#231f20"/><path d="M19.68,22.25a.36.36,0,0,1-.26-.11.35.35,0,0,1-.11-.26.38.38,0,1,1,.75,0,.36.36,0,0,1-.11.26A.37.37,0,0,1,19.68,22.25Z" fill="#231f20"/><path d="M3.75,27.13A.36.36,0,0,1,3.48,27a.35.35,0,0,1-.11-.26.4.4,0,0,1,.12-.27.38.38,0,0,1,.52,0A.37.37,0,0,1,4,27,.36.36,0,0,1,3.75,27.13Z" fill="#231f20"/><path d="M7.12,20.75a.39.39,0,0,1-.27-.11.4.4,0,0,1-.1-.26.39.39,0,0,1,.11-.27.4.4,0,0,1,.53,0,.39.39,0,0,1,.11.27.36.36,0,0,1-.11.26A.39.39,0,0,1,7.12,20.75Z" fill="#231f20"/><path d="M24.56,25.63a.36.36,0,0,1-.27-.12.38.38,0,0,1-.1-.26A.36.36,0,0,1,24.3,25a.39.39,0,0,1,.53,0,.36.36,0,0,1,.11.26.4.4,0,0,1-.12.27A.35.35,0,0,1,24.56,25.63Z" fill="#231f20"/><path d="M27,26.94a.34.34,0,0,1-.27-.12.33.33,0,0,1-.11-.25.4.4,0,0,1,.12-.28.4.4,0,0,1,.52,0,.37.37,0,0,1,.11.27.38.38,0,0,1-.11.26A.36.36,0,0,1,27,26.94Z" fill="#231f20"/><path d="M7.5,33.88a.36.36,0,0,1-.27-.12.35.35,0,0,1-.11-.26.4.4,0,0,1,.11-.27.4.4,0,0,1,.53,0,.4.4,0,0,1,.11.27.39.39,0,0,1-.11.27A.36.36,0,0,1,7.5,33.88Z" fill="#231f20"/><path d="M22.5,38.94a.39.39,0,0,1-.27-.11.39.39,0,0,1-.11-.27.36.36,0,0,1,.11-.26.4.4,0,0,1,.53,0,.38.38,0,0,1,.11.26.37.37,0,0,1-.11.27A.36.36,0,0,1,22.5,38.94Z" fill="#231f20"/><path d="M31.12,36.31a.35.35,0,0,1-.26-.1.39.39,0,0,1-.11-.27.36.36,0,0,1,.11-.26.39.39,0,0,1,.53,0,.4.4,0,0,1,.11.27.39.39,0,0,1-.11.27A.38.38,0,0,1,31.12,36.31Z" fill="#231f20"/><path d="M29.06,22.63a.36.36,0,0,1-.27-.12.38.38,0,0,1-.1-.26A.36.36,0,0,1,28.8,22a.4.4,0,0,1,.53,0,.35.35,0,0,1,.1.26.38.38,0,0,1-.1.27A.39.39,0,0,1,29.06,22.63Z" fill="#231f20"/><path d="M40.87,21.69a.36.36,0,0,1-.26-.11.35.35,0,0,1-.11-.27.35.35,0,0,1,.11-.26.39.39,0,0,1,.53,0,.36.36,0,0,1,.11.26.34.34,0,0,1-.12.27A.35.35,0,0,1,40.87,21.69Z" fill="#231f20"/><path d="M26.81,33.69a.36.36,0,0,1-.27-.12.35.35,0,0,1-.1-.26.36.36,0,0,1,.11-.26.4.4,0,0,1,.53,0,.38.38,0,0,1,.11.26.36.36,0,0,1-.12.27A.35.35,0,0,1,26.81,33.69Z" fill="#231f20"/><path d="M46.87,39.88a.36.36,0,0,1-.26-.11.39.39,0,0,1-.11-.27.36.36,0,0,1,.11-.26.39.39,0,0,1,.53,0,.36.36,0,0,1,.11.26.38.38,0,0,1-.38.38Z" fill="#231f20"/><path d="M33.75,40.44a.39.39,0,0,1-.27-.11.36.36,0,0,1,0-.53.38.38,0,0,1,.52,0,.35.35,0,0,1,.11.27.38.38,0,0,1-.11.26A.36.36,0,0,1,33.75,40.44Z" fill="#231f20"/><path d="M22.87,42.32a.4.4,0,0,1-.27-.12.38.38,0,0,1-.1-.26.37.37,0,0,1,.64-.26.35.35,0,0,1,.11.26.38.38,0,0,1-.38.38Z" fill="#231f20"/><path d="M13.31,37.63a.36.36,0,0,1-.27-.12.39.39,0,0,1-.11-.26.34.34,0,0,1,.12-.26.39.39,0,0,1,.53,0,.36.36,0,0,1,.11.26.4.4,0,0,1-.12.27A.35.35,0,0,1,13.31,37.63Z" fill="#231f20"/><path d="M15.94,40.44a.37.37,0,0,1-.27-.11.38.38,0,0,1-.11-.26.39.39,0,0,1,.11-.27.4.4,0,0,1,.53,0,.39.39,0,0,1,.11.27.38.38,0,0,1-.37.37Z" fill="#231f20"/><path d="M38.75,42.88a.38.38,0,0,1-.38-.38.36.36,0,0,1,.11-.26.39.39,0,0,1,.53,0,.36.36,0,0,1,.11.26.39.39,0,0,1-.11.27A.36.36,0,0,1,38.75,42.88Z" fill="#231f20"/><path d="M48.93,33.32a.39.39,0,0,1-.26-.12.35.35,0,0,1-.11-.26.36.36,0,0,1,.12-.27.37.37,0,0,1,.52,0,.35.35,0,0,1,.11.26.39.39,0,0,1-.11.27A.44.44,0,0,1,48.93,33.32Z" fill="#231f20"/><path d="M30.18,31.25a.38.38,0,0,1-.26-.11.36.36,0,0,1-.11-.26.38.38,0,1,1,.75,0,.36.36,0,0,1-.11.26A.37.37,0,0,1,30.18,31.25Z" fill="#231f20"/><path d="M49.31,23a.38.38,0,0,1-.38-.37.38.38,0,0,1,.12-.27.4.4,0,0,1,.53,0,.41.41,0,0,1,.11.27.36.36,0,0,1-.12.26A.36.36,0,0,1,49.31,23Z" fill="#231f20"/><path d="M35.06,21.13a.4.4,0,0,1-.27-.11.43.43,0,0,1-.1-.27.39.39,0,0,1,.11-.27.4.4,0,0,1,.53,0,.39.39,0,0,1,.11.26.4.4,0,0,1-.12.27A.36.36,0,0,1,35.06,21.13Z" fill="#231f20"/><path d="M7.5,38.75a.39.39,0,0,1-.27-.11.36.36,0,0,1-.11-.26.39.39,0,0,1,.11-.27.4.4,0,0,1,.53,0,.39.39,0,0,1,.11.27.33.33,0,0,1-.11.26A.36.36,0,0,1,7.5,38.75Z" fill="#231f20"/><path d="M24.56,21.13a.36.36,0,0,1-.27-.12.34.34,0,0,1-.1-.26.35.35,0,0,1,.1-.26.4.4,0,0,1,.54,0,.36.36,0,0,1,.11.26.4.4,0,0,1-.11.27A.39.39,0,0,1,24.56,21.13Z" fill="#231f20"/><path d="M15.18,21.13a.32.32,0,0,1-.26-.12.35.35,0,0,1-.11-.26.36.36,0,0,1,.11-.26.38.38,0,0,1,.53,0,.36.36,0,0,1,.11.26.39.39,0,0,1-.11.27A.37.37,0,0,1,15.18,21.13Z" fill="#231f20"/><path d="M29.62,42.69a.38.38,0,0,1-.26-.11.35.35,0,0,1-.11-.27.36.36,0,0,1,.11-.26.39.39,0,0,1,.53,0,.38.38,0,0,1,.11.26.34.34,0,0,1-.12.27A.35.35,0,0,1,29.62,42.69Z" fill="#231f20"/><path d="M10.69,44a.35.35,0,0,1-.27-.11.36.36,0,0,1-.11-.26.39.39,0,0,1,.11-.27.4.4,0,0,1,.53,0,.39.39,0,0,1,.11.27.36.36,0,0,1-.11.26A.38.38,0,0,1,10.69,44Z" fill="#231f20"/><path d="M43.87,18.5a.38.38,0,0,1-.26-.11.35.35,0,0,1-.11-.26.37.37,0,0,1,.11-.27.38.38,0,0,1,.64.27.32.32,0,0,1-.12.26A.35.35,0,0,1,43.87,18.5Z" fill="#231f20"/><path d="M34.5,44.19a.39.39,0,0,1-.27-.11.36.36,0,0,1-.11-.26.37.37,0,0,1,.11-.27.38.38,0,0,1,.64.27.38.38,0,0,1-.11.26A.36.36,0,0,1,34.5,44.19Z" fill="#231f20"/><path d="M44.75,25.38a.36.36,0,0,1-.27-.12.39.39,0,0,1-.11-.26.36.36,0,0,1,.11-.26.38.38,0,0,1,.53,0,.34.34,0,0,1,.12.26.4.4,0,0,1-.12.27A.36.36,0,0,1,44.75,25.38Z" fill="#231f20"/><path d="M14.62,30.32a.4.4,0,0,1-.27-.12.38.38,0,0,1-.1-.26.4.4,0,0,1,.11-.27.4.4,0,0,1,.53,0,.39.39,0,0,1,0,.54A.39.39,0,0,1,14.62,30.32Z" fill="#231f20"/><path d="M10.69,30.69a.35.35,0,0,1-.27-.11.36.36,0,0,1-.11-.26.39.39,0,0,1,.11-.27.4.4,0,0,1,.53,0,.39.39,0,0,1,.11.27.36.36,0,0,1-.11.26A.38.38,0,0,1,10.69,30.69Z" fill="#231f20"/><path d="M20.81,32.94a.39.39,0,0,1-.27-.11.39.39,0,0,1-.11-.27.34.34,0,0,1,.12-.26.4.4,0,0,1,.53,0,.38.38,0,0,1-.27.64Z" fill="#231f20"/><path d="M21.75,29.56a.39.39,0,0,1-.27-.11.35.35,0,0,1-.11-.26.4.4,0,0,1,.12-.27.37.37,0,0,1,.52,0,.35.35,0,0,1,.11.26.39.39,0,0,1-.11.27A.35.35,0,0,1,21.75,29.56Z" fill="#231f20"/><path d="M18.56,27.13a.36.36,0,0,1-.27-.12.35.35,0,0,1-.11-.26.34.34,0,0,1,.12-.26.38.38,0,0,1,.53,0,.4.4,0,0,1,.1.26.43.43,0,0,1-.1.27A.4.4,0,0,1,18.56,27.13Z" fill="#231f20"/><path d="M16.68,35.94a.36.36,0,0,1-.26-.11.37.37,0,0,1-.11-.27.38.38,0,0,1,.11-.26.39.39,0,0,1,.53,0,.38.38,0,0,1,.11.26.37.37,0,0,1-.11.27A.39.39,0,0,1,16.68,35.94Z" fill="#231f20"/><path d="M45.93,30.32a.39.39,0,0,1-.26-.12.35.35,0,0,1-.11-.26.36.36,0,0,1,.12-.27.37.37,0,0,1,.52,0,.35.35,0,0,1,.11.26.39.39,0,0,1-.11.27A.44.44,0,0,1,45.93,30.32Z" fill="#231f20"/><path d="M32.43,25.82a.38.38,0,0,1-.26-.11.37.37,0,1,1,.26.11Z" fill="#231f20"/><path d="M38.62,30.69a.38.38,0,0,1-.26-.11.37.37,0,0,1-.11-.27.36.36,0,0,1,.11-.26.39.39,0,0,1,.53,0,.38.38,0,0,1,.11.26.38.38,0,0,1-.38.38Z" fill="#231f20"/><path d="M40.31,27.32a.4.4,0,0,1-.27-.11.39.39,0,0,1-.1-.27.38.38,0,0,1,.1-.27.4.4,0,0,1,.54,0,.43.43,0,0,1,.1.27.39.39,0,0,1-.11.27A.36.36,0,0,1,40.31,27.32Z" fill="#231f20"/><path d="M36.93,36.5a.38.38,0,0,1-.26-.11.35.35,0,0,1-.11-.26.37.37,0,0,1,.11-.27.4.4,0,0,1,.53,0,.37.37,0,0,1,.11.27.35.35,0,0,1-.11.26A.39.39,0,0,1,36.93,36.5Z" fill="#231f20"/><path d="M41.81,38.57a.38.38,0,0,1-.37-.38.39.39,0,0,1,.11-.27.41.41,0,0,1,.53,0,.43.43,0,0,1,.1.27.39.39,0,0,1-.1.27A.4.4,0,0,1,41.81,38.57Z" fill="#231f20"/><path d="M42.93,34.44a.38.38,0,0,1-.26-.11.35.35,0,0,1-.11-.26.37.37,0,0,1,.11-.27.39.39,0,0,1,.53,0,.37.37,0,0,1,.11.27.35.35,0,0,1-.11.26A.39.39,0,0,1,42.93,34.44Z" fill="#231f20"/><path d="M45,43.63a.39.39,0,0,1-.27-.11.44.44,0,0,1-.11-.27.4.4,0,0,1,.12-.27.38.38,0,0,1,.52,0,.35.35,0,0,1,.11.26.39.39,0,0,1-.11.27A.36.36,0,0,1,45,43.63Z" fill="#231f20"/><path d="M49.87,43.44a.38.38,0,0,1-.26-.11.35.35,0,0,1-.11-.26.35.35,0,0,1,.11-.27.39.39,0,0,1,.53,0,.37.37,0,0,1,.11.27.32.32,0,0,1-.12.26A.35.35,0,0,1,49.87,43.44Z" fill="#231f20"/><path d="M54.56,45.32a.4.4,0,0,1-.27-.12.39.39,0,0,1-.11-.26.37.37,0,0,1,.12-.27.4.4,0,0,1,.53,0,.36.36,0,0,1,.11.26.4.4,0,0,1-.12.27A.39.39,0,0,1,54.56,45.32Z" fill="#231f20"/><path d="M55.5,20.19a.39.39,0,0,1-.27-.11.38.38,0,0,1-.11-.26.38.38,0,1,1,.75,0,.34.34,0,0,1-.11.26A.36.36,0,0,1,55.5,20.19Z" fill="#231f20"/><path d="M53.81,38.75a.37.37,0,0,1-.27-.64.4.4,0,0,1,.53,0,.35.35,0,0,1,0,.53A.36.36,0,0,1,53.81,38.75Z" fill="#231f20"/><path d="M60.37,45.69a.39.39,0,0,1-.27-.11.43.43,0,0,1-.1-.27.36.36,0,0,1,.11-.26.39.39,0,0,1,.53,0,.36.36,0,0,1,.11.26.38.38,0,0,1-.38.38Z" fill="#231f20"/><path d="M55.31,32a.39.39,0,0,1-.27-.11.36.36,0,0,1-.11-.26.36.36,0,0,1,.12-.27.38.38,0,0,1,.52,0,.36.36,0,0,1,.12.27.36.36,0,0,1-.11.26A.4.4,0,0,1,55.31,32Z" fill="#231f20"/><path d="M61.31,27.69a.35.35,0,0,1-.26-.11.35.35,0,0,1-.12-.26.39.39,0,0,1,.11-.27.4.4,0,0,1,.54,0,.39.39,0,0,1,.11.27.38.38,0,0,1-.11.26A.4.4,0,0,1,61.31,27.69Z" fill="#231f20"/><path d="M66,44.38a.4.4,0,0,1-.27-.12.35.35,0,0,1-.11-.26.4.4,0,0,1,.12-.27.37.37,0,0,1,.52,0,.35.35,0,0,1,.11.26.39.39,0,0,1-.11.27A.36.36,0,0,1,66,44.38Z" fill="#231f20"/><path d="M72.19,45.5a.35.35,0,0,1-.27-.11.36.36,0,0,1-.11-.26.37.37,0,0,1,.11-.27.4.4,0,0,1,.53,0,.39.39,0,0,1,.11.27.38.38,0,0,1-.37.37Z" fill="#231f20"/><path d="M67.69,29.75a.35.35,0,0,1-.27-.11.36.36,0,0,1-.11-.26.37.37,0,0,1,.11-.27.39.39,0,0,1,.53,0,.33.33,0,0,1,.11.26.38.38,0,0,1-.11.26A.35.35,0,0,1,67.69,29.75Z" fill="#231f20"/><path d="M72,23a.39.39,0,0,1-.27-.11.37.37,0,0,1,.53-.53.37.37,0,0,1,.11.27.38.38,0,0,1-.11.26A.36.36,0,0,1,72,23Z" fill="#231f20"/><path d="M72.19,29a.35.35,0,0,1-.27-.11.36.36,0,0,1-.11-.26.33.33,0,0,1,.12-.27.37.37,0,0,1,.63.27.38.38,0,0,1-.37.37Z" fill="#231f20"/><path d="M72.19,39.88a.36.36,0,0,1-.27-.12.35.35,0,0,1-.11-.26.36.36,0,0,1,.12-.27.38.38,0,0,1,.52,0,.35.35,0,0,1,.11.26.39.39,0,0,1-.11.27A.36.36,0,0,1,72.19,39.88Z" fill="#231f20"/><path d="M54,22.63a.36.36,0,0,1-.27-.12.36.36,0,0,1-.11-.26.4.4,0,0,1,.12-.27.37.37,0,0,1,.52,0,.35.35,0,0,1,.11.26.4.4,0,0,1-.11.27A.36.36,0,0,1,54,22.63Z" fill="#231f20"/><path d="M52.87,13.44a.35.35,0,0,1-.26-.11.36.36,0,0,1-.11-.26.37.37,0,0,1,.11-.27.38.38,0,0,1,.64.27.38.38,0,0,1-.11.26A.39.39,0,0,1,52.87,13.44Z" fill="#231f20"/><path d="M50.81,34.82a.36.36,0,0,1-.26-.11.35.35,0,0,1-.11-.27.39.39,0,0,1,.1-.27.4.4,0,0,1,.54,0,.35.35,0,0,1,.1.26.38.38,0,0,1-.1.27A.4.4,0,0,1,50.81,34.82Z" fill="#231f20"/><path d="M58.75,30.88a.36.36,0,0,1-.27-.12.39.39,0,0,1-.11-.26.36.36,0,0,1,.12-.27.39.39,0,0,1,.64.27.4.4,0,0,1-.12.27A.36.36,0,0,1,58.75,30.88Z" fill="#231f20"/><path d="M51.37,26a.39.39,0,0,1-.27-.11.38.38,0,0,1-.1-.26.39.39,0,0,1,.11-.27.4.4,0,0,1,.53,0,.39.39,0,0,1,.11.27.32.32,0,0,1-.12.26A.36.36,0,0,1,51.37,26Z" fill="#231f20"/><path d="M56.25,8.57A.4.4,0,0,1,56,8.45a.39.39,0,0,1-.11-.26A.36.36,0,0,1,56,7.92a.39.39,0,0,1,.53,0,.38.38,0,0,1,.1.26.38.38,0,0,1-.37.38Z" fill="#231f20"/><path d="M57.56,6.13A.39.39,0,0,1,57.29,6a.4.4,0,0,1-.11-.27.36.36,0,0,1,.11-.26.39.39,0,0,1,.54,0,.35.35,0,0,1,.1.26.38.38,0,0,1-.1.27A.39.39,0,0,1,57.56,6.13Z" fill="#231f20"/><path d="M64.5,25.63a.38.38,0,0,1-.27-.12.34.34,0,0,1-.1-.26.35.35,0,0,1,.1-.26.39.39,0,0,1,.53,0,.36.36,0,0,1,.11.27.39.39,0,0,1-.11.27A.36.36,0,0,1,64.5,25.63Z" fill="#231f20"/><path d="M69.56,10.63a.4.4,0,0,1-.27-.12.39.39,0,0,1-.11-.26.36.36,0,0,1,.11-.26.39.39,0,0,1,.54,0,.35.35,0,0,1,.1.26.37.37,0,0,1-.11.27A.36.36,0,0,1,69.56,10.63Z" fill="#231f20"/><path d="M66.93,2a.36.36,0,0,1-.26-.11.35.35,0,0,1-.11-.26.39.39,0,0,1,.11-.27.4.4,0,0,1,.53,0,.39.39,0,0,1,.11.27.35.35,0,0,1-.11.26A.39.39,0,0,1,66.93,2Z" fill="#231f20"/><path d="M53.25,4.07A.39.39,0,0,1,53,4a.4.4,0,0,1-.11-.27A.36.36,0,0,1,53,3.43a.37.37,0,0,1,.64.26.33.33,0,0,1-.11.26A.34.34,0,0,1,53.25,4.07Z" fill="#231f20"/><path d="M64.31,6.31A.39.39,0,0,1,64,6.2a.35.35,0,0,1-.11-.26A.4.4,0,0,1,64,5.67a.4.4,0,0,1,.53,0,.36.36,0,0,1,.11.27.43.43,0,0,1-.1.27A.38.38,0,0,1,64.31,6.31Z" fill="#231f20"/><path d="M68.25,19.81A.39.39,0,0,1,68,19.7a.36.36,0,0,1-.11-.26.36.36,0,0,1,.12-.27.37.37,0,0,1,.52,0,.35.35,0,0,1,.11.26.39.39,0,0,1-.11.27A.38.38,0,0,1,68.25,19.81Z" fill="#231f20"/><path d="M71.06,17.19a.39.39,0,0,1-.27-.11.42.42,0,0,1-.1-.26.37.37,0,0,1,.11-.27.4.4,0,0,1,.53,0,.41.41,0,0,1,.11.27.38.38,0,0,1-.11.26A.39.39,0,0,1,71.06,17.19Z" fill="#231f20"/><path d="M61.87,2.94a.39.39,0,0,1-.27-.11.42.42,0,0,1-.1-.26.39.39,0,0,1,.11-.27.4.4,0,0,1,.53,0,.39.39,0,0,1,.11.27.38.38,0,0,1-.11.26A.39.39,0,0,1,61.87,2.94Z" fill="#231f20"/><path d="M69.37,25.63a.36.36,0,0,1-.27-.12.38.38,0,0,1-.1-.26.36.36,0,0,1,.11-.26.39.39,0,0,1,.53,0,.36.36,0,0,1,.11.26.36.36,0,0,1-.12.27A.35.35,0,0,1,69.37,25.63Z" fill="#231f20"/><path d="M51.75,8.57a.4.4,0,0,1-.27-.12.35.35,0,0,1-.11-.26.4.4,0,0,1,.11-.27.38.38,0,0,1,.53,0,.36.36,0,0,1,.11.26.39.39,0,0,1-.11.27A.41.41,0,0,1,51.75,8.57Z" fill="#231f20"/><path d="M51.75,17.94a.39.39,0,0,1-.27-.11.35.35,0,0,1-.11-.26.34.34,0,0,1,.12-.27.37.37,0,0,1,.52,0,.37.37,0,0,1,.11.27.35.35,0,0,1-.11.26A.36.36,0,0,1,51.75,17.94Z" fill="#231f20"/><path d="M65.62,41.94a.36.36,0,0,1-.26-.11.38.38,0,0,1-.11-.26.37.37,0,0,1,.11-.27.39.39,0,0,1,.53,0,.35.35,0,0,1,.11.27.38.38,0,0,1-.11.26A.39.39,0,0,1,65.62,41.94Z" fill="#231f20"/><path d="M63.37,34.07A.4.4,0,0,1,63.1,34a.38.38,0,0,1-.1-.26.36.36,0,0,1,.11-.26.39.39,0,0,1,.53,0,.4.4,0,0,1,.11.27.36.36,0,0,1-.12.27A.39.39,0,0,1,63.37,34.07Z" fill="#231f20"/><path d="M59.81,40.07a.4.4,0,0,1-.27-.12.39.39,0,0,1-.11-.26.4.4,0,0,1,.12-.27.38.38,0,0,1,.64.27.4.4,0,0,1-.12.27A.36.36,0,0,1,59.81,40.07Z" fill="#231f20"/><path d="M68.44,35.75a.35.35,0,0,1-.27-.11.36.36,0,0,1-.11-.26.37.37,0,0,1,.11-.27.4.4,0,0,1,.53,0,.39.39,0,0,1,.11.27.38.38,0,0,1-.37.37Z" fill="#231f20"/><path d="M60.94,18.5a.35.35,0,0,1-.27-.11.36.36,0,0,1-.11-.26.38.38,0,1,1,.75,0,.38.38,0,0,1-.37.37Z" fill="#231f20"/><path d="M61.31,22.44a.36.36,0,0,1-.27-.12.34.34,0,0,1-.11-.25.36.36,0,0,1,.12-.27.4.4,0,0,1,.53,0,.39.39,0,0,1,.11.27.36.36,0,0,1-.12.26A.35.35,0,0,1,61.31,22.44Z" fill="#231f20"/><path d="M63.56,12.32a.44.44,0,0,1-.27-.11.39.39,0,0,1-.11-.27.36.36,0,0,1,.12-.27.39.39,0,0,1,.53,0,.35.35,0,0,1,.11.26.39.39,0,0,1-.11.27A.4.4,0,0,1,63.56,12.32Z" fill="#231f20"/><path d="M60.19,11.38a.33.33,0,0,1-.27-.12.35.35,0,0,1-.11-.26.36.36,0,0,1,.11-.26.38.38,0,0,1,.53,0,.36.36,0,0,1,.11.26.39.39,0,0,1-.11.27A.36.36,0,0,1,60.19,11.38Z" fill="#231f20"/><path d="M57.75,14.57a.4.4,0,0,1-.27-.12.35.35,0,0,1-.11-.26.4.4,0,0,1,.12-.27.38.38,0,0,1,.52,0,.35.35,0,0,1,.11.26.36.36,0,0,1-.11.26A.37.37,0,0,1,57.75,14.57Z" fill="#231f20"/><path d="M66.56,16.44a.39.39,0,0,1-.27-.11.42.42,0,0,1-.1-.26.35.35,0,0,1,.11-.27.38.38,0,0,1,.64.27.38.38,0,0,1-.11.26A.4.4,0,0,1,66.56,16.44Z" fill="#231f20"/><path d="M56.43.69a.35.35,0,0,1-.26-.11.39.39,0,0,1-.11-.27.36.36,0,0,1,.11-.26.4.4,0,0,1,.53,0,.36.36,0,0,1,.11.26.39.39,0,0,1-.11.27A.37.37,0,0,1,56.43.69Z" fill="#231f20"/><path d="M45.75,47.19a.39.39,0,0,1-.27-.11.36.36,0,0,1-.11-.26.36.36,0,0,1,.12-.27.37.37,0,0,1,.52.53A.4.4,0,0,1,45.75,47.19Z" fill="#231f20"/><path d="M41.25,46.44a.4.4,0,0,1-.27-.11.39.39,0,0,1-.11-.27A.38.38,0,0,1,41,45.8a.39.39,0,0,1,.54,0,.42.42,0,0,1,.1.26.39.39,0,0,1-.11.27A.35.35,0,0,1,41.25,46.44Z" fill="#231f20"/><path d="M9.75,12.32a.4.4,0,0,1-.27-.12.36.36,0,0,1-.11-.26.4.4,0,0,1,.11-.27.4.4,0,0,1,.53,0,.42.42,0,0,1,.12.27.37.37,0,0,1-.12.26A.34.34,0,0,1,9.75,12.32Z" fill="#231f20"/><path d="M18.19,13.63a.34.34,0,0,1-.27-.12.35.35,0,0,1-.11-.26.36.36,0,0,1,.11-.26.39.39,0,0,1,.53,0,.36.36,0,0,1,.11.26.39.39,0,0,1-.11.27A.38.38,0,0,1,18.19,13.63Z" fill="#231f20"/><path d="M3.94,11.75a.35.35,0,0,1-.27-.11.36.36,0,0,1-.11-.26.39.39,0,0,1,.11-.27.4.4,0,0,1,.53,0,.39.39,0,0,1,.11.27.36.36,0,0,1-.11.26A.38.38,0,0,1,3.94,11.75Z" fill="#231f20"/><path d="M15.56,17.38a.36.36,0,0,1-.27-.12.35.35,0,0,1-.11-.26.38.38,0,0,1,.65-.26.38.38,0,0,1-.27.64Z" fill="#231f20"/><path d="M1.31,16.44A.39.39,0,0,1,1,16.33a.36.36,0,0,1,0-.53.38.38,0,0,1,.53,0,.35.35,0,0,1,.11.26.36.36,0,0,1-.11.26A.39.39,0,0,1,1.31,16.44Z" fill="#231f20"/><path d="M9.19,17.94a.37.37,0,0,1-.27-.11.38.38,0,0,1-.11-.26.39.39,0,0,1,.11-.27.4.4,0,0,1,.53,0,.39.39,0,0,1,.11.27.38.38,0,0,1-.37.37Z" fill="#231f20"/><path d="M24.37,10.82a.41.41,0,0,1-.26-.11.4.4,0,0,1-.11-.27.38.38,0,1,1,.75,0,.36.36,0,0,1-.11.26A.4.4,0,0,1,24.37,10.82Z" fill="#231f20"/><path d="M30.18,18.32a.38.38,0,0,1-.26-.11.4.4,0,0,1-.11-.27.39.39,0,0,1,.11-.27.4.4,0,0,1,.53,0,.39.39,0,0,1,.11.27.36.36,0,0,1-.11.26A.4.4,0,0,1,30.18,18.32Z" fill="#231f20"/><path d="M40.87,13.63a.36.36,0,0,1-.26-.11.39.39,0,0,1,0-.54.4.4,0,0,1,.53,0,.35.35,0,0,1,.11.26.36.36,0,0,1-.12.27A.35.35,0,0,1,40.87,13.63Z" fill="#231f20"/><path d="M24.25,14.88a.36.36,0,0,1-.27-.12.34.34,0,0,1-.1-.26.37.37,0,0,1,.63-.26.35.35,0,0,1,.11.26.39.39,0,0,1-.11.27A.36.36,0,0,1,24.25,14.88Z" fill="#231f20"/><path d="M20.25,16.63a.38.38,0,0,1-.38-.38A.4.4,0,0,1,20,16a.38.38,0,0,1,.52,0,.35.35,0,0,1,.11.26.39.39,0,0,1-.11.27A.36.36,0,0,1,20.25,16.63Z" fill="#231f20"/><path d="M33.37,16.25a.38.38,0,0,1-.37-.37.38.38,0,1,1,.75,0,.38.38,0,0,1-.11.26A.39.39,0,0,1,33.37,16.25Z" fill="#231f20"/><path d="M37.12,10.44a.38.38,0,0,1-.26-.11.36.36,0,0,1-.11-.26.35.35,0,0,1,.11-.27.39.39,0,0,1,.53,0,.37.37,0,0,1,.11.27.38.38,0,0,1-.11.26A.4.4,0,0,1,37.12,10.44Z" fill="#231f20"/><path d="M38.25,16.25a.39.39,0,0,1-.27-.11.36.36,0,0,1-.11-.26.38.38,0,1,1,.75,0,.38.38,0,0,1-.37.37Z" fill="#231f20"/><path d="M43.5,13.07a.38.38,0,1,1,.37-.38.36.36,0,0,1-.11.26A.34.34,0,0,1,43.5,13.07Z" fill="#231f20"/><path d="M30.18,13.07a.38.38,0,0,1-.26-.11.38.38,0,1,1,.53,0A.44.44,0,0,1,30.18,13.07Z" fill="#231f20"/><path d="M14.81,44.57a.4.4,0,0,1-.27-.12.36.36,0,0,1-.11-.26.37.37,0,0,1,.12-.27.39.39,0,0,1,.53,0,.36.36,0,0,1,.11.26.38.38,0,0,1-.38.38Z" fill="#231f20"/><path d="M3.75.13A.36.36,0,0,1,3.48,0a.35.35,0,0,1-.11-.26.36.36,0,0,1,.11-.26A.39.39,0,0,1,4-.51a.36.36,0,0,1,.11.26A.39.39,0,0,1,4,0,.36.36,0,0,1,3.75.13Z" fill="#231f20"/><path d="M18.56.13A.36.36,0,0,1,18.29,0a.36.36,0,0,1-.11-.26.34.34,0,0,1,.12-.26.38.38,0,0,1,.53,0,.4.4,0,0,1,.1.26.39.39,0,0,1-.1.27A.4.4,0,0,1,18.56.13Z" fill="#231f20"/><path d="M40.31.31A.35.35,0,0,1,40,.2a.34.34,0,0,1-.1-.26A.35.35,0,0,1,40-.32a.39.39,0,0,1,.54,0,.38.38,0,0,1,.1.27.39.39,0,0,1-.11.27A.34.34,0,0,1,40.31.31Z" fill="#231f20"/><path d="M56.43,72.69a.38.38,0,0,1-.37-.37.37.37,0,0,1,.11-.27.4.4,0,0,1,.53,0,.37.37,0,0,1,.11.27.35.35,0,0,1-.11.26A.39.39,0,0,1,56.43,72.69Z" fill="#231f20"/><path d="M.19,45.5a.35.35,0,0,1-.27-.11.36.36,0,0,1-.11-.26.37.37,0,0,1,.11-.27.4.4,0,0,1,.53,0,.39.39,0,0,1,.11.27.36.36,0,0,1-.11.26A.36.36,0,0,1,.19,45.5Z" fill="#231f20"/><path d="M0,23a.39.39,0,0,1-.27-.11.38.38,0,0,1-.11-.26.38.38,0,0,1,.12-.27.38.38,0,0,1,.52,0,.37.37,0,0,1,.11.27.38.38,0,0,1-.11.26A.36.36,0,0,1,0,23Z" fill="#231f20"/><path d="M.19,29a.35.35,0,0,1-.27-.11.36.36,0,0,1-.11-.26.33.33,0,0,1,.12-.27.38.38,0,0,1,.52,0,.39.39,0,0,1,.11.27.36.36,0,0,1-.11.26A.36.36,0,0,1,.19,29Z" fill="#231f20"/><path d="M.19,39.88a.36.36,0,0,1-.27-.12.35.35,0,0,1-.11-.26.36.36,0,0,1,.12-.27.38.38,0,0,1,.52,0,.35.35,0,0,1,.11.26.39.39,0,0,1-.11.27A.36.36,0,0,1,.19,39.88Z" fill="#231f20"/><path d="M3.75.13A.36.36,0,0,1,3.48,0a.39.39,0,0,1-.11-.26.36.36,0,0,1,.11-.26A.4.4,0,0,1,4-.51a.33.33,0,0,1,.11.26A.39.39,0,0,1,4,0,.36.36,0,0,1,3.75.13Z" fill="#231f20"/><path d="M18.56.13A.36.36,0,0,1,18.29,0a.39.39,0,0,1-.11-.26.34.34,0,0,1,.12-.26.38.38,0,0,1,.53,0,.4.4,0,0,1,.1.26.39.39,0,0,1-.11.27A.36.36,0,0,1,18.56.13Z" fill="#231f20"/><path d="M40.31.32A.4.4,0,0,1,40,.2a.38.38,0,0,1-.1-.26.39.39,0,0,1,.11-.27.39.39,0,0,1,.53,0,.38.38,0,0,1,.1.26.39.39,0,0,1-.11.27A.39.39,0,0,1,40.31.32Z" fill="#231f20"/><path d="M56.43.69a.35.35,0,0,1-.26-.11.35.35,0,0,1-.11-.26.37.37,0,0,1,.11-.27.4.4,0,0,1,.53,0,.37.37,0,0,1,.11.27.35.35,0,0,1-.11.26A.39.39,0,0,1,56.43.69Z" fill="#231f20"/></pattern><pattern id="Grid_1_pica_Lines" data-name="Grid 1 pica Lines" width="72" height="72" patternTransform="matrix(-0.82, -0.58, 0.58, -0.82, 124.26, 74.03)" patternUnits="userSpaceOnUse" viewBox="0 0 72 72"><rect width="72" height="72" fill="none"/><line x1="6" y1="71.75" x2="6" y2="144.25" fill="none" stroke="#231f20" stroke-width="0.35"/><line x1="30" y1="71.75" x2="30" y2="144.25" fill="none" stroke="#231f20" stroke-width="0.35"/><line x1="54" y1="71.75" x2="54" y2="144.25" fill="none" stroke="#231f20" stroke-width="0.35"/><line x1="18" y1="71.75" x2="18" y2="144.25" fill="none" stroke="#231f20" stroke-width="0.35"/><line x1="42" y1="71.75" x2="42" y2="144.25" fill="none" stroke="#231f20" stroke-width="0.35"/><line x1="66" y1="71.75" x2="66" y2="144.25" fill="none" stroke="#231f20" stroke-width="0.35"/><line x1="71.75" y1="66" x2="144.25" y2="66" fill="none" stroke="#231f20" stroke-width="0.35"/><line x1="71.75" y1="42" x2="144.25" y2="42" fill="none" stroke="#231f20" stroke-width="0.35"/><line x1="71.75" y1="18" x2="144.25" y2="18" fill="none" stroke="#231f20" stroke-width="0.35"/><line x1="71.75" y1="54" x2="144.25" y2="54" fill="none" stroke="#231f20" stroke-width="0.35"/><line x1="71.75" y1="30" x2="144.25" y2="30" fill="none" stroke="#231f20" stroke-width="0.35"/><line x1="71.75" y1="6" x2="144.25" y2="6" fill="none" stroke="#231f20" stroke-width="0.35"/><line x1="6" y1="-0.25" x2="6" y2="72.25" fill="none" stroke="#231f20" stroke-width="0.35"/><line x1="30" y1="-0.25" x2="30" y2="72.25" fill="none" stroke="#231f20" stroke-width="0.35"/><line x1="54" y1="-0.25" x2="54" y2="72.25" fill="none" stroke="#231f20" stroke-width="0.35"/><line x1="-0.25" y1="66" x2="72.25" y2="66" fill="none" stroke="#231f20" stroke-width="0.35"/><line x1="-0.25" y1="42" x2="72.25" y2="42" fill="none" stroke="#231f20" stroke-width="0.35"/><line x1="-0.25" y1="18" x2="72.25" y2="18" fill="none" stroke="#231f20" stroke-width="0.35"/><line x1="-0.25" y1="54" x2="72.25" y2="54" fill="none" stroke="#231f20" stroke-width="0.35"/><line x1="-0.25" y1="30" x2="72.25" y2="30" fill="none" stroke="#231f20" stroke-width="0.35"/><line x1="-0.25" y1="6" x2="72.25" y2="6" fill="none" stroke="#231f20" stroke-width="0.35"/><line x1="18" y1="-0.25" x2="18" y2="72.25" fill="none" stroke="#231f20" stroke-width="0.35"/><line x1="42" y1="-0.25" x2="42" y2="72.25" fill="none" stroke="#231f20" stroke-width="0.35"/><line x1="66" y1="-0.25" x2="66" y2="72.25" fill="none" stroke="#231f20" stroke-width="0.35"/><line x1="-72.25" y1="66" x2="0.25" y2="66" fill="none" stroke="#231f20" stroke-width="0.35"/><line x1="-72.25" y1="42" x2="0.25" y2="42" fill="none" stroke="#231f20" stroke-width="0.35"/><line x1="-72.25" y1="18" x2="0.25" y2="18" fill="none" stroke="#231f20" stroke-width="0.35"/><line x1="-72.25" y1="54" x2="0.25" y2="54" fill="none" stroke="#231f20" stroke-width="0.35"/><line x1="-72.25" y1="30" x2="0.25" y2="30" fill="none" stroke="#231f20" stroke-width="0.35"/><line x1="-72.25" y1="6" x2="0.25" y2="6" fill="none" stroke="#231f20" stroke-width="0.35"/><line x1="6" y1="-72.25" x2="6" y2="0.25" fill="none" stroke="#231f20" stroke-width="0.35"/><line x1="30" y1="-72.25" x2="30" y2="0.25" fill="none" stroke="#231f20" stroke-width="0.35"/><line x1="54" y1="-72.25" x2="54" y2="0.25" fill="none" stroke="#231f20" stroke-width="0.35"/><line x1="18" y1="-72.25" x2="18" y2="0.25" fill="none" stroke="#231f20" stroke-width="0.35"/><line x1="42" y1="-72.25" x2="42" y2="0.25" fill="none" stroke="#231f20" stroke-width="0.35"/><line x1="66" y1="-72.25" x2="66" y2="0.25" fill="none" stroke="#231f20" stroke-width="0.35"/></pattern><pattern id="Crosses" data-name="Crosses" width="57.6" height="57.6" patternTransform="translate(39.38 -20.4)" patternUnits="userSpaceOnUse" viewBox="0 0 57.6 57.6"><rect width="57.6" height="57.6" fill="none"/><line x1="52.5" y1="3.6" x2="55.5" y2="3.6" fill="none" stroke="#231f20" stroke-width="0.35"/><line x1="38.1" y1="3.6" x2="41.1" y2="3.6" fill="none" stroke="#231f20" stroke-width="0.35"/><line x1="23.7" y1="3.6" x2="26.7" y2="3.6" fill="none" stroke="#231f20" stroke-width="0.35"/><line x1="9.3" y1="3.6" x2="12.3" y2="3.6" fill="none" stroke="#231f20" stroke-width="0.35"/><line x1="45.3" y1="10.8" x2="48.3" y2="10.8" fill="none" stroke="#231f20" stroke-width="0.35"/><line x1="30.9" y1="10.8" x2="33.9" y2="10.8" fill="none" stroke="#231f20" stroke-width="0.35"/><line x1="16.5" y1="10.8" x2="19.5" y2="10.8" fill="none" stroke="#231f20" stroke-width="0.35"/><line x1="2.1" y1="10.8" x2="5.1" y2="10.8" fill="none" stroke="#231f20" stroke-width="0.35"/><line x1="52.5" y1="18" x2="55.5" y2="18" fill="none" stroke="#231f20" stroke-width="0.35"/><line x1="38.1" y1="18" x2="41.1" y2="18" fill="none" stroke="#231f20" stroke-width="0.35"/><line x1="23.7" y1="18" x2="26.7" y2="18" fill="none" stroke="#231f20" stroke-width="0.35"/><line x1="9.3" y1="18" x2="12.3" y2="18" fill="none" stroke="#231f20" stroke-width="0.35"/><line x1="45.3" y1="25.2" x2="48.3" y2="25.2" fill="none" stroke="#231f20" stroke-width="0.35"/><line x1="30.9" y1="25.2" x2="33.9" y2="25.2" fill="none" stroke="#231f20" stroke-width="0.35"/><line x1="16.5" y1="25.2" x2="19.5" y2="25.2" fill="none" stroke="#231f20" stroke-width="0.35"/><line x1="2.1" y1="25.2" x2="5.1" y2="25.2" fill="none" stroke="#231f20" stroke-width="0.35"/><line x1="52.5" y1="32.4" x2="55.5" y2="32.4" fill="none" stroke="#231f20" stroke-width="0.35"/><line x1="38.1" y1="32.4" x2="41.1" y2="32.4" fill="none" stroke="#231f20" stroke-width="0.35"/><line x1="23.7" y1="32.4" x2="26.7" y2="32.4" fill="none" stroke="#231f20" stroke-width="0.35"/><line x1="9.3" y1="32.4" x2="12.3" y2="32.4" fill="none" stroke="#231f20" stroke-width="0.35"/><line x1="45.3" y1="39.6" x2="48.3" y2="39.6" fill="none" stroke="#231f20" stroke-width="0.35"/><line x1="30.9" y1="39.6" x2="33.9" y2="39.6" fill="none" stroke="#231f20" stroke-width="0.35"/><line x1="16.5" y1="39.6" x2="19.5" y2="39.6" fill="none" stroke="#231f20" stroke-width="0.35"/><line x1="2.1" y1="39.6" x2="5.1" y2="39.6" fill="none" stroke="#231f20" stroke-width="0.35"/><line x1="52.5" y1="46.8" x2="55.5" y2="46.8" fill="none" stroke="#231f20" stroke-width="0.35"/><line x1="38.1" y1="46.8" x2="41.1" y2="46.8" fill="none" stroke="#231f20" stroke-width="0.35"/><line x1="23.7" y1="46.8" x2="26.7" y2="46.8" fill="none" stroke="#231f20" stroke-width="0.35"/><line x1="9.3" y1="46.8" x2="12.3" y2="46.8" fill="none" stroke="#231f20" stroke-width="0.35"/><line x1="45.3" y1="54" x2="48.3" y2="54" fill="none" stroke="#231f20" stroke-width="0.35"/><line x1="30.9" y1="54" x2="33.9" y2="54" fill="none" stroke="#231f20" stroke-width="0.35"/><line x1="16.5" y1="54" x2="19.5" y2="54" fill="none" stroke="#231f20" stroke-width="0.35"/><line x1="2.1" y1="54" x2="5.1" y2="54" fill="none" stroke="#231f20" stroke-width="0.35"/><line x1="54" y1="2.1" x2="54" y2="5.1" fill="none" stroke="#231f20" stroke-width="0.35"/><line x1="39.6" y1="2.1" x2="39.6" y2="5.1" fill="none" stroke="#231f20" stroke-width="0.35"/><line x1="25.2" y1="2.1" x2="25.2" y2="5.1" fill="none" stroke="#231f20" stroke-width="0.35"/><line x1="10.8" y1="2.1" x2="10.8" y2="5.1" fill="none" stroke="#231f20" stroke-width="0.35"/><line x1="46.8" y1="9.3" x2="46.8" y2="12.3" fill="none" stroke="#231f20" stroke-width="0.35"/><line x1="32.4" y1="9.3" x2="32.4" y2="12.3" fill="none" stroke="#231f20" stroke-width="0.35"/><line x1="18" y1="9.3" x2="18" y2="12.3" fill="none" stroke="#231f20" stroke-width="0.35"/><line x1="3.6" y1="9.3" x2="3.6" y2="12.3" fill="none" stroke="#231f20" stroke-width="0.35"/><line x1="54" y1="16.5" x2="54" y2="19.5" fill="none" stroke="#231f20" stroke-width="0.35"/><line x1="39.6" y1="16.5" x2="39.6" y2="19.5" fill="none" stroke="#231f20" stroke-width="0.35"/><line x1="25.2" y1="16.5" x2="25.2" y2="19.5" fill="none" stroke="#231f20" stroke-width="0.35"/><line x1="10.8" y1="16.5" x2="10.8" y2="19.5" fill="none" stroke="#231f20" stroke-width="0.35"/><line x1="46.8" y1="23.7" x2="46.8" y2="26.7" fill="none" stroke="#231f20" stroke-width="0.35"/><line x1="32.4" y1="23.7" x2="32.4" y2="26.7" fill="none" stroke="#231f20" stroke-width="0.35"/><line x1="18" y1="23.7" x2="18" y2="26.7" fill="none" stroke="#231f20" stroke-width="0.35"/><line x1="3.6" y1="23.7" x2="3.6" y2="26.7" fill="none" stroke="#231f20" stroke-width="0.35"/><line x1="54" y1="30.9" x2="54" y2="33.9" fill="none" stroke="#231f20" stroke-width="0.35"/><line x1="39.6" y1="30.9" x2="39.6" y2="33.9" fill="none" stroke="#231f20" stroke-width="0.35"/><line x1="25.2" y1="30.9" x2="25.2" y2="33.9" fill="none" stroke="#231f20" stroke-width="0.35"/><line x1="10.8" y1="30.9" x2="10.8" y2="33.9" fill="none" stroke="#231f20" stroke-width="0.35"/><line x1="46.8" y1="38.1" x2="46.8" y2="41.1" fill="none" stroke="#231f20" stroke-width="0.35"/><line x1="32.4" y1="38.1" x2="32.4" y2="41.1" fill="none" stroke="#231f20" stroke-width="0.35"/><line x1="18" y1="38.1" x2="18" y2="41.1" fill="none" stroke="#231f20" stroke-width="0.35"/><line x1="3.6" y1="38.1" x2="3.6" y2="41.1" fill="none" stroke="#231f20" stroke-width="0.35"/><line x1="54" y1="45.3" x2="54" y2="48.3" fill="none" stroke="#231f20" stroke-width="0.35"/><line x1="39.6" y1="45.3" x2="39.6" y2="48.3" fill="none" stroke="#231f20" stroke-width="0.35"/><line x1="25.2" y1="45.3" x2="25.2" y2="48.3" fill="none" stroke="#231f20" stroke-width="0.35"/><line x1="10.8" y1="45.3" x2="10.8" y2="48.3" fill="none" stroke="#231f20" stroke-width="0.35"/><line x1="46.8" y1="52.5" x2="46.8" y2="55.5" fill="none" stroke="#231f20" stroke-width="0.35"/><line x1="32.4" y1="52.5" x2="32.4" y2="55.5" fill="none" stroke="#231f20" stroke-width="0.35"/><line x1="18" y1="52.5" x2="18" y2="55.5" fill="none" stroke="#231f20" stroke-width="0.35"/><line x1="3.6" y1="52.5" x2="3.6" y2="55.5" fill="none" stroke="#231f20" stroke-width="0.35"/></pattern><pattern id="USGS_19_Land_Inundation" data-name="USGS 19 Land Inundation" width="75.48" height="70.35" patternTransform="translate(-43.66 -7.65)" patternUnits="userSpaceOnUse" viewBox="0 0 75.48 70.35"><rect width="75.48" height="70.35" fill="none"/><line y1="70.18" x2="73.44" y2="70.18" fill="none" stroke="#231f20" stroke-width="0.35" stroke-dasharray="2 2"/><line y1="66.18" x2="73.44" y2="66.18" fill="none" stroke="#231f20" stroke-width="0.35" stroke-dasharray="2 2"/><line y1="62.18" x2="73.44" y2="62.18" fill="none" stroke="#231f20" stroke-width="0.35" stroke-dasharray="2 2"/><line y1="58.18" x2="73.44" y2="58.18" fill="none" stroke="#231f20" stroke-width="0.35" stroke-dasharray="2 2"/><line y1="54.18" x2="73.44" y2="54.18" fill="none" stroke="#231f20" stroke-width="0.35" stroke-dasharray="2 2"/><line y1="50.18" x2="73.44" y2="50.18" fill="none" stroke="#231f20" stroke-width="0.35" stroke-dasharray="2 2"/><line y1="46.18" x2="73.44" y2="46.18" fill="none" stroke="#231f20" stroke-width="0.35" stroke-dasharray="2 2"/><line y1="42.18" x2="73.44" y2="42.18" fill="none" stroke="#231f20" stroke-width="0.35" stroke-dasharray="2 2"/><line y1="38.18" x2="73.44" y2="38.18" fill="none" stroke="#231f20" stroke-width="0.35" stroke-dasharray="2 2"/><line y1="34.18" x2="73.44" y2="34.18" fill="none" stroke="#231f20" stroke-width="0.35" stroke-dasharray="2 2"/><line y1="30.18" x2="73.44" y2="30.18" fill="none" stroke="#231f20" stroke-width="0.35" stroke-dasharray="2 2"/><line y1="26.18" x2="73.44" y2="26.18" fill="none" stroke="#231f20" stroke-width="0.35" stroke-dasharray="2 2"/><line y1="22.18" x2="73.44" y2="22.18" fill="none" stroke="#231f20" stroke-width="0.35" stroke-dasharray="2 2"/><line y1="18.18" x2="73.44" y2="18.18" fill="none" stroke="#231f20" stroke-width="0.35" stroke-dasharray="2 2"/><line y1="14.18" x2="73.44" y2="14.18" fill="none" stroke="#231f20" stroke-width="0.35" stroke-dasharray="2 2"/><line y1="10.18" x2="73.44" y2="10.18" fill="none" stroke="#231f20" stroke-width="0.35" stroke-dasharray="2 2"/><line y1="6.18" x2="73.44" y2="6.18" fill="none" stroke="#231f20" stroke-width="0.35" stroke-dasharray="2 2"/><line y1="2.18" x2="73.44" y2="2.18" fill="none" stroke="#231f20" stroke-width="0.35" stroke-dasharray="2 2"/><line x1="2.04" y1="68.18" x2="75.48" y2="68.18" fill="none" stroke="#231f20" stroke-width="0.35" stroke-dasharray="2 2"/><line x1="2.04" y1="64.18" x2="75.48" y2="64.18" fill="none" stroke="#231f20" stroke-width="0.35" stroke-dasharray="2 2"/><line x1="2.04" y1="60.18" x2="75.48" y2="60.18" fill="none" stroke="#231f20" stroke-width="0.35" stroke-dasharray="2 2"/><line x1="2.04" y1="56.18" x2="75.48" y2="56.18" fill="none" stroke="#231f20" stroke-width="0.35" stroke-dasharray="2 2"/><line x1="2.04" y1="52.18" x2="75.48" y2="52.18" fill="none" stroke="#231f20" stroke-width="0.35" stroke-dasharray="2 2"/><line x1="2.04" y1="48.18" x2="75.48" y2="48.18" fill="none" stroke="#231f20" stroke-width="0.35" stroke-dasharray="2 2"/><line x1="2.04" y1="44.18" x2="75.48" y2="44.18" fill="none" stroke="#231f20" stroke-width="0.35" stroke-dasharray="2 2"/><line x1="2.04" y1="40.18" x2="75.48" y2="40.18" fill="none" stroke="#231f20" stroke-width="0.35" stroke-dasharray="2 2"/><line x1="2.04" y1="36.18" x2="75.48" y2="36.18" fill="none" stroke="#231f20" stroke-width="0.35" stroke-dasharray="2 2"/><line x1="2.04" y1="32.18" x2="75.48" y2="32.18" fill="none" stroke="#231f20" stroke-width="0.35" stroke-dasharray="2 2"/><line x1="2.04" y1="28.18" x2="75.48" y2="28.18" fill="none" stroke="#231f20" stroke-width="0.35" stroke-dasharray="2 2"/><line x1="2.04" y1="24.18" x2="75.48" y2="24.18" fill="none" stroke="#231f20" stroke-width="0.35" stroke-dasharray="2 2"/><line x1="2.04" y1="20.18" x2="75.48" y2="20.18" fill="none" stroke="#231f20" stroke-width="0.35" stroke-dasharray="2 2"/><line x1="2.04" y1="16.18" x2="75.48" y2="16.18" fill="none" stroke="#231f20" stroke-width="0.35" stroke-dasharray="2 2"/><line x1="2.04" y1="12.18" x2="75.48" y2="12.18" fill="none" stroke="#231f20" stroke-width="0.35" stroke-dasharray="2 2"/><line x1="2.04" y1="8.18" x2="75.48" y2="8.18" fill="none" stroke="#231f20" stroke-width="0.35" stroke-dasharray="2 2"/><line x1="2.04" y1="4.18" x2="75.48" y2="4.18" fill="none" stroke="#231f20" stroke-width="0.35" stroke-dasharray="2 2"/><line x1="2.04" y1="0.18" x2="75.48" y2="0.18" fill="none" stroke="#231f20" stroke-width="0.35" stroke-dasharray="2 2"/></pattern></defs><g id="BORDER"><rect x="14.83" y="14.41" width="430.94" height="430.94" fill="none" stroke="#000" stroke-miterlimit="10" stroke-width="2"/></g><g id="DATA_FILLS" data-name="DATA FILLS"><path d="M337.61,272.78C349.15,254.92,400,220,447.57,250s141.59,82.11,103.6,119c-17.5,17-152.87,32-179.72,10C348.3,360,306.1,321.56,337.61,272.78Z" transform="translate(-303.82 -217.67)" fill="#fff"/><path d="M461,384s-68-19.78-91,15.11S347.49,486.69,347,501c-1,29-3,86,18,97.22C389,611,414,599,462,554c60-56.23,58.89-88,57.44-114S490,393,461,384Z" transform="translate(-303.82 -217.67)" fill="#fff"/><path d="M515.66,641.82c48.78-3.07,78.35-17.89,86.49-49.83s-43.75-92-99.72-92-134.36,17.89-147.57,52.38S373.2,650.76,515.66,641.82Z" transform="translate(-303.82 -217.67)" fill="#fff"/><path d="M563.79,558.16c-23.93,38.25-41.47,87.7-6.21,98.51S682.19,647.05,698,588.59s48.91-175.85,10.52-166.71S618,471.56,563.79,558.16Z" transform="translate(-303.82 -217.67)" fill="#fff"/><path d="M692,346.51c0-35-28-71.3-85-55.29s-92.26,60.86-92.26,99.54S579.66,492,614.83,492,692,462.9,692,346.51Z" transform="translate(-303.82 -217.67)" fill="#fff"/><path d="M466,390c17-13.89,65-56,89-26s70,69,59,102-71,89-96,58S422,426,466,390Z" transform="translate(-303.82 -217.67)" fill="#fff"/><path d="M337.61,272.78C349.15,254.92,400,220,447.57,250s141.59,82.11,103.6,119c-17.5,17-152.87,32-179.72,10C348.3,360,306.1,321.56,337.61,272.78Z" transform="translate(-303.82 -217.67)" fill="#fff"/><path d="M461,384s-68-19.78-91,15.11S347.49,486.69,347,501c-1,29-3,86,18,97.22C389,611,414,599,462,554c60-56.23,58.89-88,57.44-114S490,393,461,384Z" transform="translate(-303.82 -217.67)" fill="#fff"/><path d="M515.66,641.82c48.78-3.07,78.35-17.89,86.49-49.83s-43.75-92-99.72-92-134.36,17.89-147.57,52.38S373.2,650.76,515.66,641.82Z" transform="translate(-303.82 -217.67)" fill="#fff"/><path d="M563.79,558.16c-23.93,38.25-41.47,87.7-6.21,98.51S682.19,647.05,698,588.59s48.91-175.85,10.52-166.71S618,471.56,563.79,558.16Z" transform="translate(-303.82 -217.67)" fill="#fff"/><path d="M692,346.51c0-35-28-71.3-85-55.29s-92.26,60.86-92.26,99.54S579.66,492,614.83,492,692,462.9,692,346.51Z" transform="translate(-303.82 -217.67)" fill="#fff"/><path d="M466,390c17-13.89,65-56,89-26s70,69,59,102-71,89-96,58S422,426,466,390Z" transform="translate(-303.82 -217.67)" fill="#fff"/></g><g id="DATA"><path d="M337.61,272.78C349.15,254.92,400,220,447.57,250s141.59,82.11,103.6,119c-17.5,17-152.87,32-179.72,10C348.3,360,306.1,321.56,337.61,272.78Z" transform="translate(-303.82 -217.67)" stroke="#000" stroke-miterlimit="10" fill="url(#Diagonal_Lines)"/><path d="M461,384s-68-19.78-91,15.11S347.49,486.69,347,501c-1,29-3,86,18,97.22C389,611,414,599,462,554c60-56.23,58.89-88,57.44-114S490,393,461,384Z" transform="translate(-303.82 -217.67)" stroke="#000" stroke-miterlimit="10" fill="url(#_10_dpi_10_)"/><path d="M515.66,641.82c48.78-3.07,78.35-17.89,86.49-49.83s-43.75-92-99.72-92-134.36,17.89-147.57,52.38S373.2,650.76,515.66,641.82Z" transform="translate(-303.82 -217.67)" stroke="#000" stroke-miterlimit="10" stroke-width="0.75" fill="url(#Stipple_Fine)"/><path d="M563.79,558.16c-23.93,38.25-41.47,87.7-6.21,98.51S682.19,647.05,698,588.59s48.91-175.85,10.52-166.71S618,471.56,563.79,558.16Z" transform="translate(-303.82 -217.67)" stroke="#000" stroke-miterlimit="10" fill="url(#Grid_1_pica_Lines)"/><path d="M692,346.51c0-35-28-71.3-85-55.29s-92.26,60.86-92.26,99.54S579.66,492,614.83,492,692,462.9,692,346.51Z" transform="translate(-303.82 -217.67)" stroke="#000" stroke-miterlimit="10" fill="url(#Crosses)"/><path d="M466,390c17-13.89,65-56,89-26s70,69,59,102-71,89-96,58S422,426,466,390Z" transform="translate(-303.82 -217.67)" stroke="#000" stroke-miterlimit="10" fill="url(#USGS_19_Land_Inundation)"/></g><g id="AXIS"><line x1="16.15" y1="229.88" x2="444.44" y2="229.88" fill="none" stroke="#000" stroke-miterlimit="10"/><path d="M327.48,452.83a.54.54,0,0,0-.17-.76l-7.09-4.52,7.09-4.52a.54.54,0,0,0,.17-.76.55.55,0,0,0-.76-.16l-7.82,5a.55.55,0,0,0,0,.93l7.82,5a.58.58,0,0,0,.3.09A.53.53,0,0,0,327.48,452.83Z" transform="translate(-303.82 -217.67)"/><path d="M740.74,452.83a.55.55,0,0,1,.17-.76l7.1-4.52-7.1-4.52a.55.55,0,1,1,.59-.92l7.83,5a.56.56,0,0,1,0,.93l-7.83,5a.55.55,0,0,1-.3.09A.53.53,0,0,1,740.74,452.83Z" transform="translate(-303.82 -217.67)"/><line x1="230.29" y1="15.74" x2="230.29" y2="444.03" fill="none" stroke="#000" stroke-miterlimit="10"/><path d="M528.83,240.93a.56.56,0,0,0,.76-.17l4.52-7.1,4.52,7.1a.56.56,0,0,0,.76.17.55.55,0,0,0,.17-.76l-5-7.83a.56.56,0,0,0-.47-.25.53.53,0,0,0-.46.25l-5,7.83a.51.51,0,0,0-.08.29A.57.57,0,0,0,528.83,240.93Z" transform="translate(-303.82 -217.67)"/><path d="M528.83,654.18a.55.55,0,0,1,.76.17l4.52,7.1,4.52-7.1a.55.55,0,1,1,.93.59l-5,7.83a.56.56,0,0,1-.47.25.53.53,0,0,1-.46-.25l-5-7.83a.51.51,0,0,1-.08-.29A.57.57,0,0,1,528.83,654.18Z" transform="translate(-303.82 -217.67)"/></g><g id="TEXTFILL"><rect x="73.18" y="255.33" width="78" height="10" fill="#fff"/><rect x="157.18" y="353.33" width="60" height="10" fill="#fff"/><rect x="234.18" y="268.33" width="48" height="10" fill="#fff"/><rect x="335.18" y="300.33" width="42" height="8" fill="#fff"/><rect x="283.18" y="150.33" width="61" height="8" fill="#fff"/><rect x="113.18" y="95.33" width="36" height="10" fill="#fff"/></g><g id="TEXT"><text transform="translate(205.43 7.64)" font-size="9" font-family="IBMPlexMono-Bold, IBM Plex Mono" font-weight="700" letter-spacing="0.1em">VERTICAL</text><text transform="translate(114.78 103.27)" font-size="8" font-family="IBMPlexMono-Medium, IBM Plex Mono" font-weight="500" letter-spacing="0.1em">OFFICE</text><text transform="translate(78.98 263.27)" font-size="8" font-family="IBMPlexMono-Medium, IBM Plex Mono" font-weight="500" letter-spacing="0.1em">CO-OPERATIVE</text><text transform="translate(159.58 361.27)" font-size="8" font-family="IBMPlexMono-Medium, IBM Plex Mono" font-weight="500" letter-spacing="0.1em">COLLECTIVE</text><text transform="translate(235.18 276.27)" font-size="8" font-family="IBMPlexMono-Medium, IBM Plex Mono" font-weight="500" letter-spacing="0.1em">PLATFORM</text><text transform="translate(285.58 157.27)" font-size="8" font-family="IBMPlexMono-Medium, IBM Plex Mono" font-weight="500" letter-spacing="0.1em">NON-PROFIT</text><text transform="translate(336.98 307.27)" font-size="8" font-family="IBMPlexMono-Medium, IBM Plex Mono" font-weight="500" letter-spacing="0.1em">NETWORK</text><text transform="translate(199.13 459.65)" font-size="9" font-family="IBMPlexMono-Bold, IBM Plex Mono" font-weight="700" letter-spacing="0.1em">HORIZONTAL</text><text transform="translate(457.66 175.19)" font-size="9" font-family="IBMPlexMono-Bold, IBM Plex Mono" font-weight="700" letter-spacing="0.1em">D<tspan x="0" y="10.8">E</tspan><tspan x="0" y="21.6">C</tspan><tspan x="0" y="32.4">E</tspan><tspan x="0" y="43.2">N</tspan><tspan x="0" y="54">T</tspan><tspan x="0" y="64.8">R</tspan><tspan x="0" y="75.6">A</tspan><tspan x="0" y="86.4">L</tspan><tspan x="0" y="97.2">I</tspan><tspan x="0" y="108">Z</tspan><tspan x="0" y="118.8">E</tspan><tspan x="0" y="129.6">D</tspan></text><text transform="translate(1.31 179.99)" font-size="9" font-family="IBMPlexMono-Bold, IBM Plex Mono" font-weight="700" letter-spacing="0.1em">C<tspan x="0" y="10.8">E</tspan><tspan x="0" y="21.6">N</tspan><tspan x="0" y="32.4">T</tspan><tspan x="0" y="43.2">R</tspan><tspan x="0" y="54">A</tspan><tspan x="0" y="64.8">L</tspan><tspan x="0" y="75.6">I</tspan><tspan x="0" y="86.4">Z</tspan><tspan x="0" y="97.2">E</tspan><tspan x="0" y="108">D</tspan></text></g></svg>